%FSLAX45Y45*%
G04 Gerber Fmt 4.5, Leading zero omitted, Abs format (unit mm)*
G04 Created by KiCad (PCBNEW (5.1.5-0-10_14)) date 2020-04-23 09:13:12*
%MOMM*%
%LPD*%
G04 APERTURE LIST*
%TA.AperFunction,Profile*%
%ADD10C,0.100000*%
%TD*%
%ADD11C,0.200000*%
%ADD12C,0.300000*%
G04 APERTURE END LIST*
D10*
X17025000Y-10475000D02*
X17025000Y-7250000D01*
X16850000Y-12775000D02*
X17025000Y-12775000D01*
X9750000Y-5100000D02*
X9750000Y-6200000D01*
X18250000Y-5100000D02*
X9750000Y-5100000D01*
X18250000Y-7250000D02*
X18250000Y-5100000D01*
X17025000Y-7250000D02*
X18250000Y-7250000D01*
X17025000Y-12775000D02*
X17025000Y-10475000D01*
X10750000Y-12775000D02*
X16850000Y-12775000D01*
X9750000Y-12775000D02*
X10750000Y-12775000D01*
X9750000Y-6200000D02*
X9750000Y-12775000D01*
D11*
X10595786Y-12311959D02*
X10870786Y-12586959D01*
X10870786Y-12311959D02*
X10595786Y-12586959D01*
X10602136Y-7409759D02*
X10877136Y-7684759D01*
X10877136Y-7409759D02*
X10602136Y-7684759D01*
X16399686Y-12311959D02*
X16674686Y-12586959D01*
X16674686Y-12311959D02*
X16399686Y-12586959D01*
X16404086Y-7409759D02*
X16679086Y-7684759D01*
X16679086Y-7409759D02*
X16404086Y-7684759D01*
D12*
X10031428Y-13245714D02*
X10031428Y-12945714D01*
X10102857Y-12945714D01*
X10145714Y-12960000D01*
X10174286Y-12988571D01*
X10188571Y-13017143D01*
X10202857Y-13074286D01*
X10202857Y-13117143D01*
X10188571Y-13174286D01*
X10174286Y-13202857D01*
X10145714Y-13231429D01*
X10102857Y-13245714D01*
X10031428Y-13245714D01*
X10331428Y-13245714D02*
X10331428Y-13045714D01*
X10331428Y-13102857D02*
X10345714Y-13074286D01*
X10360000Y-13060000D01*
X10388571Y-13045714D01*
X10417143Y-13045714D01*
X10517143Y-13245714D02*
X10517143Y-13045714D01*
X10517143Y-12945714D02*
X10502857Y-12960000D01*
X10517143Y-12974286D01*
X10531428Y-12960000D01*
X10517143Y-12945714D01*
X10517143Y-12974286D01*
X10702857Y-13245714D02*
X10674286Y-13231429D01*
X10660000Y-13202857D01*
X10660000Y-12945714D01*
X10860000Y-13245714D02*
X10831428Y-13231429D01*
X10817143Y-13202857D01*
X10817143Y-12945714D01*
X11202857Y-13245714D02*
X11202857Y-12945714D01*
X11302857Y-13160000D01*
X11402857Y-12945714D01*
X11402857Y-13245714D01*
X11674286Y-13245714D02*
X11674286Y-13088571D01*
X11660000Y-13060000D01*
X11631428Y-13045714D01*
X11574286Y-13045714D01*
X11545714Y-13060000D01*
X11674286Y-13231429D02*
X11645714Y-13245714D01*
X11574286Y-13245714D01*
X11545714Y-13231429D01*
X11531428Y-13202857D01*
X11531428Y-13174286D01*
X11545714Y-13145714D01*
X11574286Y-13131429D01*
X11645714Y-13131429D01*
X11674286Y-13117143D01*
X11817143Y-13045714D02*
X11817143Y-13345714D01*
X11817143Y-13060000D02*
X11845714Y-13045714D01*
X11902857Y-13045714D01*
X11931428Y-13060000D01*
X11945714Y-13074286D01*
X11960000Y-13102857D01*
X11960000Y-13188571D01*
X11945714Y-13217143D01*
X11931428Y-13231429D01*
X11902857Y-13245714D01*
X11845714Y-13245714D01*
X11817143Y-13231429D01*
X12088571Y-13217143D02*
X12102857Y-13231429D01*
X12088571Y-13245714D01*
X12074286Y-13231429D01*
X12088571Y-13217143D01*
X12088571Y-13245714D01*
X12088571Y-13060000D02*
X12102857Y-13074286D01*
X12088571Y-13088571D01*
X12074286Y-13074286D01*
X12088571Y-13060000D01*
X12088571Y-13088571D01*
X9470000Y-13602500D02*
X9745000Y-13877500D01*
X9745000Y-13602500D02*
X9470000Y-13877500D01*
X10017143Y-13604286D02*
X10031428Y-13590000D01*
X10060000Y-13575714D01*
X10131428Y-13575714D01*
X10160000Y-13590000D01*
X10174286Y-13604286D01*
X10188571Y-13632857D01*
X10188571Y-13661429D01*
X10174286Y-13704286D01*
X10002857Y-13875714D01*
X10188571Y-13875714D01*
X10317143Y-13847143D02*
X10331428Y-13861429D01*
X10317143Y-13875714D01*
X10302857Y-13861429D01*
X10317143Y-13847143D01*
X10317143Y-13875714D01*
X10431428Y-13575714D02*
X10631428Y-13575714D01*
X10502857Y-13875714D01*
X10888571Y-13575714D02*
X10745714Y-13575714D01*
X10731428Y-13718571D01*
X10745714Y-13704286D01*
X10774286Y-13690000D01*
X10845714Y-13690000D01*
X10874286Y-13704286D01*
X10888571Y-13718571D01*
X10902857Y-13747143D01*
X10902857Y-13818571D01*
X10888571Y-13847143D01*
X10874286Y-13861429D01*
X10845714Y-13875714D01*
X10774286Y-13875714D01*
X10745714Y-13861429D01*
X10731428Y-13847143D01*
X11031428Y-13875714D02*
X11031428Y-13675714D01*
X11031428Y-13704286D02*
X11045714Y-13690000D01*
X11074286Y-13675714D01*
X11117143Y-13675714D01*
X11145714Y-13690000D01*
X11160000Y-13718571D01*
X11160000Y-13875714D01*
X11160000Y-13718571D02*
X11174286Y-13690000D01*
X11202857Y-13675714D01*
X11245714Y-13675714D01*
X11274286Y-13690000D01*
X11288571Y-13718571D01*
X11288571Y-13875714D01*
X11431428Y-13875714D02*
X11431428Y-13675714D01*
X11431428Y-13704286D02*
X11445714Y-13690000D01*
X11474286Y-13675714D01*
X11517143Y-13675714D01*
X11545714Y-13690000D01*
X11560000Y-13718571D01*
X11560000Y-13875714D01*
X11560000Y-13718571D02*
X11574286Y-13690000D01*
X11602857Y-13675714D01*
X11645714Y-13675714D01*
X11674286Y-13690000D01*
X11688571Y-13718571D01*
X11688571Y-13875714D01*
X12274286Y-13561429D02*
X12017143Y-13947143D01*
X12660000Y-13575714D02*
X12688571Y-13575714D01*
X12717143Y-13590000D01*
X12731428Y-13604286D01*
X12745714Y-13632857D01*
X12760000Y-13690000D01*
X12760000Y-13761429D01*
X12745714Y-13818571D01*
X12731428Y-13847143D01*
X12717143Y-13861429D01*
X12688571Y-13875714D01*
X12660000Y-13875714D01*
X12631428Y-13861429D01*
X12617143Y-13847143D01*
X12602857Y-13818571D01*
X12588571Y-13761429D01*
X12588571Y-13690000D01*
X12602857Y-13632857D01*
X12617143Y-13604286D01*
X12631428Y-13590000D01*
X12660000Y-13575714D01*
X12888571Y-13847143D02*
X12902857Y-13861429D01*
X12888571Y-13875714D01*
X12874286Y-13861429D01*
X12888571Y-13847143D01*
X12888571Y-13875714D01*
X13188571Y-13875714D02*
X13017143Y-13875714D01*
X13102857Y-13875714D02*
X13102857Y-13575714D01*
X13074286Y-13618571D01*
X13045714Y-13647143D01*
X13017143Y-13661429D01*
X13374286Y-13575714D02*
X13402857Y-13575714D01*
X13431428Y-13590000D01*
X13445714Y-13604286D01*
X13460000Y-13632857D01*
X13474286Y-13690000D01*
X13474286Y-13761429D01*
X13460000Y-13818571D01*
X13445714Y-13847143D01*
X13431428Y-13861429D01*
X13402857Y-13875714D01*
X13374286Y-13875714D01*
X13345714Y-13861429D01*
X13331428Y-13847143D01*
X13317143Y-13818571D01*
X13302857Y-13761429D01*
X13302857Y-13690000D01*
X13317143Y-13632857D01*
X13331428Y-13604286D01*
X13345714Y-13590000D01*
X13374286Y-13575714D01*
X13645714Y-13704286D02*
X13617143Y-13690000D01*
X13602857Y-13675714D01*
X13588571Y-13647143D01*
X13588571Y-13632857D01*
X13602857Y-13604286D01*
X13617143Y-13590000D01*
X13645714Y-13575714D01*
X13702857Y-13575714D01*
X13731428Y-13590000D01*
X13745714Y-13604286D01*
X13760000Y-13632857D01*
X13760000Y-13647143D01*
X13745714Y-13675714D01*
X13731428Y-13690000D01*
X13702857Y-13704286D01*
X13645714Y-13704286D01*
X13617143Y-13718571D01*
X13602857Y-13732857D01*
X13588571Y-13761429D01*
X13588571Y-13818571D01*
X13602857Y-13847143D01*
X13617143Y-13861429D01*
X13645714Y-13875714D01*
X13702857Y-13875714D01*
X13731428Y-13861429D01*
X13745714Y-13847143D01*
X13760000Y-13818571D01*
X13760000Y-13761429D01*
X13745714Y-13732857D01*
X13731428Y-13718571D01*
X13702857Y-13704286D01*
X13874286Y-13575714D02*
X13874286Y-13632857D01*
X13988571Y-13575714D02*
X13988571Y-13632857D01*
X14431428Y-13990000D02*
X14417143Y-13975714D01*
X14388571Y-13932857D01*
X14374286Y-13904286D01*
X14360000Y-13861429D01*
X14345714Y-13790000D01*
X14345714Y-13732857D01*
X14360000Y-13661429D01*
X14374286Y-13618571D01*
X14388571Y-13590000D01*
X14417143Y-13547143D01*
X14431428Y-13532857D01*
X14674286Y-13675714D02*
X14674286Y-13875714D01*
X14602857Y-13561429D02*
X14531428Y-13775714D01*
X14717143Y-13775714D01*
X15060000Y-13875714D02*
X15060000Y-13575714D01*
X15188571Y-13875714D02*
X15188571Y-13718571D01*
X15174286Y-13690000D01*
X15145714Y-13675714D01*
X15102857Y-13675714D01*
X15074286Y-13690000D01*
X15060000Y-13704286D01*
X15374286Y-13875714D02*
X15345714Y-13861429D01*
X15331428Y-13847143D01*
X15317143Y-13818571D01*
X15317143Y-13732857D01*
X15331428Y-13704286D01*
X15345714Y-13690000D01*
X15374286Y-13675714D01*
X15417143Y-13675714D01*
X15445714Y-13690000D01*
X15460000Y-13704286D01*
X15474286Y-13732857D01*
X15474286Y-13818571D01*
X15460000Y-13847143D01*
X15445714Y-13861429D01*
X15417143Y-13875714D01*
X15374286Y-13875714D01*
X15645714Y-13875714D02*
X15617143Y-13861429D01*
X15602857Y-13832857D01*
X15602857Y-13575714D01*
X15874286Y-13861429D02*
X15845714Y-13875714D01*
X15788571Y-13875714D01*
X15760000Y-13861429D01*
X15745714Y-13832857D01*
X15745714Y-13718571D01*
X15760000Y-13690000D01*
X15788571Y-13675714D01*
X15845714Y-13675714D01*
X15874286Y-13690000D01*
X15888571Y-13718571D01*
X15888571Y-13747143D01*
X15745714Y-13775714D01*
X16002857Y-13861429D02*
X16031428Y-13875714D01*
X16088571Y-13875714D01*
X16117143Y-13861429D01*
X16131428Y-13832857D01*
X16131428Y-13818571D01*
X16117143Y-13790000D01*
X16088571Y-13775714D01*
X16045714Y-13775714D01*
X16017143Y-13761429D01*
X16002857Y-13732857D01*
X16002857Y-13718571D01*
X16017143Y-13690000D01*
X16045714Y-13675714D01*
X16088571Y-13675714D01*
X16117143Y-13690000D01*
X16231428Y-13990000D02*
X16245714Y-13975714D01*
X16274286Y-13932857D01*
X16288571Y-13904286D01*
X16302857Y-13861429D01*
X16317143Y-13790000D01*
X16317143Y-13732857D01*
X16302857Y-13661429D01*
X16288571Y-13618571D01*
X16274286Y-13590000D01*
X16245714Y-13547143D01*
X16231428Y-13532857D01*
X16774286Y-13990000D02*
X16760000Y-13975714D01*
X16731428Y-13932857D01*
X16717143Y-13904286D01*
X16702857Y-13861429D01*
X16688571Y-13790000D01*
X16688571Y-13732857D01*
X16702857Y-13661429D01*
X16717143Y-13618571D01*
X16731428Y-13590000D01*
X16760000Y-13547143D01*
X16774286Y-13532857D01*
X16888571Y-13675714D02*
X16888571Y-13875714D01*
X16888571Y-13704286D02*
X16902857Y-13690000D01*
X16931428Y-13675714D01*
X16974286Y-13675714D01*
X17002857Y-13690000D01*
X17017143Y-13718571D01*
X17017143Y-13875714D01*
X17202857Y-13875714D02*
X17174286Y-13861429D01*
X17160000Y-13847143D01*
X17145714Y-13818571D01*
X17145714Y-13732857D01*
X17160000Y-13704286D01*
X17174286Y-13690000D01*
X17202857Y-13675714D01*
X17245714Y-13675714D01*
X17274286Y-13690000D01*
X17288571Y-13704286D01*
X17302857Y-13732857D01*
X17302857Y-13818571D01*
X17288571Y-13847143D01*
X17274286Y-13861429D01*
X17245714Y-13875714D01*
X17202857Y-13875714D01*
X17388571Y-13675714D02*
X17502857Y-13675714D01*
X17431428Y-13575714D02*
X17431428Y-13832857D01*
X17445714Y-13861429D01*
X17474286Y-13875714D01*
X17502857Y-13875714D01*
X17831428Y-13675714D02*
X17831428Y-13975714D01*
X17831428Y-13690000D02*
X17860000Y-13675714D01*
X17917143Y-13675714D01*
X17945714Y-13690000D01*
X17960000Y-13704286D01*
X17974286Y-13732857D01*
X17974286Y-13818571D01*
X17960000Y-13847143D01*
X17945714Y-13861429D01*
X17917143Y-13875714D01*
X17860000Y-13875714D01*
X17831428Y-13861429D01*
X18145714Y-13875714D02*
X18117143Y-13861429D01*
X18102857Y-13832857D01*
X18102857Y-13575714D01*
X18388571Y-13875714D02*
X18388571Y-13718571D01*
X18374286Y-13690000D01*
X18345714Y-13675714D01*
X18288571Y-13675714D01*
X18260000Y-13690000D01*
X18388571Y-13861429D02*
X18360000Y-13875714D01*
X18288571Y-13875714D01*
X18260000Y-13861429D01*
X18245714Y-13832857D01*
X18245714Y-13804286D01*
X18260000Y-13775714D01*
X18288571Y-13761429D01*
X18360000Y-13761429D01*
X18388571Y-13747143D01*
X18488571Y-13675714D02*
X18602857Y-13675714D01*
X18531428Y-13575714D02*
X18531428Y-13832857D01*
X18545714Y-13861429D01*
X18574286Y-13875714D01*
X18602857Y-13875714D01*
X18817143Y-13861429D02*
X18788571Y-13875714D01*
X18731428Y-13875714D01*
X18702857Y-13861429D01*
X18688571Y-13832857D01*
X18688571Y-13718571D01*
X18702857Y-13690000D01*
X18731428Y-13675714D01*
X18788571Y-13675714D01*
X18817143Y-13690000D01*
X18831428Y-13718571D01*
X18831428Y-13747143D01*
X18688571Y-13775714D01*
X19088571Y-13875714D02*
X19088571Y-13575714D01*
X19088571Y-13861429D02*
X19060000Y-13875714D01*
X19002857Y-13875714D01*
X18974286Y-13861429D01*
X18960000Y-13847143D01*
X18945714Y-13818571D01*
X18945714Y-13732857D01*
X18960000Y-13704286D01*
X18974286Y-13690000D01*
X19002857Y-13675714D01*
X19060000Y-13675714D01*
X19088571Y-13690000D01*
X19202857Y-13990000D02*
X19217143Y-13975714D01*
X19245714Y-13932857D01*
X19260000Y-13904286D01*
X19274286Y-13861429D01*
X19288571Y-13790000D01*
X19288571Y-13732857D01*
X19274286Y-13661429D01*
X19260000Y-13618571D01*
X19245714Y-13590000D01*
X19217143Y-13547143D01*
X19202857Y-13532857D01*
M02*
