M48
; DRILL file {KiCad (5.1.5-0-10_14)} date Thursday, 23 April 2020 at 09:13:12
; FORMAT={-:-/ absolute / inch / decimal}
; #@! TF.CreationDate,2020-04-23T09:13:12+01:00
; #@! TF.GenerationSoftware,Kicad,Pcbnew,(5.1.5-0-10_14)
; #@! TF.FileFunction,Plated,1,2,PTH
FMAT,2
INCH
T1C0.0157
T2C0.0315
T3C0.0394
T4C0.0433
T5C0.0472
T6C0.0630
T7C0.0787
%
G90
G05
T1
X3.9961Y-2.7362
X4.0551Y-2.7362
X5.8661Y-3.9075
X5.8661Y-3.9961
X6.0575Y-3.6669
X6.2648Y-4.0108
X6.3091Y-3.3957
X6.5059Y-3.3366
T2
X6.0039Y-3.9075
X6.0039Y-4.0075
X6.0039Y-4.1075
X6.0039Y-4.2075
X6.0039Y-4.3075
X6.0039Y-4.4075
X6.0039Y-4.5075
X6.0039Y-4.6075
X6.4039Y-3.9075
X6.4039Y-4.0075
X6.4039Y-4.1075
X6.4039Y-4.2075
X6.4039Y-4.3075
X6.4039Y-4.4075
X6.4039Y-4.5075
X6.4039Y-4.6075
X6.0728Y-3.189
X6.0728Y-3.589
X5.3307Y-3.2398
X5.3307Y-3.4367
X6.5453Y-3.878
X6.5453Y-4.0748
X6.1102Y-2.5295
X6.437Y-2.5197
X6.5157Y-2.5197
X6.5945Y-2.5197
X6.6732Y-2.5197
X7.0Y-2.2933
X4.7638Y-2.5787
X5.1638Y-2.5787
X5.5305Y-3.2055
X5.5305Y-3.5055
X5.6305Y-3.2055
X5.6305Y-3.5055
X5.7305Y-3.2055
X5.7305Y-3.5055
X5.8305Y-3.2055
X5.8305Y-3.5055
X4.1929Y-2.5787
X4.5929Y-2.5787
X5.4528Y-3.75
X5.8528Y-3.75
X6.0075Y-4.7343
X6.4075Y-4.7343
X6.3091Y-3.7303
X6.5059Y-3.7303
X6.2551Y-3.2579
X6.2551Y-3.5579
X6.3551Y-3.2579
X6.3551Y-3.5579
X6.4551Y-3.2579
X6.4551Y-3.5579
X6.5551Y-3.2579
X6.5551Y-3.5579
X4.9213Y-3.563
X5.3213Y-3.563
X5.3642Y-3.9862
X5.3642Y-4.1831
T3
X3.9717Y-2.3031
X4.0717Y-2.3031
X4.1717Y-2.3031
X4.2717Y-2.3031
X4.7394Y-2.3031
X4.8394Y-2.3031
X4.9394Y-2.3031
X5.0394Y-2.3031
X5.8957Y-2.4705
X5.8957Y-2.5705
X5.8957Y-2.6705
X5.8957Y-2.7705
X5.6496Y-3.9862
X5.6496Y-4.1831
X5.389Y-2.5
X5.489Y-2.5
X5.589Y-2.5
X5.689Y-2.5
X5.3906Y-2.3031
X5.4906Y-2.3031
X5.5906Y-2.3031
X5.6906Y-2.3031
X4.4207Y-2.9214
X4.4207Y-3.0214
X4.5207Y-2.9214
X4.5207Y-3.0214
X4.6207Y-2.9214
X4.6207Y-3.0214
X4.7207Y-2.9214
X4.7207Y-3.0214
X4.8207Y-2.9214
X4.8207Y-3.0214
X4.9207Y-2.9214
X4.9207Y-3.0214
X5.0207Y-2.9214
X5.0207Y-3.0214
X5.1207Y-2.9214
X5.1207Y-3.0214
X5.2207Y-2.9214
X5.2207Y-3.0214
X5.3207Y-2.9214
X5.3207Y-3.0214
X5.4207Y-2.9214
X5.4207Y-3.0214
X5.5207Y-2.9214
X5.5207Y-3.0214
X5.6207Y-2.9214
X5.6207Y-3.0214
X5.7207Y-2.9214
X5.7207Y-3.0214
X5.8207Y-2.9214
X5.8207Y-3.0214
X5.9207Y-2.9214
X5.9207Y-3.0214
X6.0207Y-2.9214
X6.0207Y-3.0214
X6.1207Y-2.9214
X6.1207Y-3.0214
X6.2207Y-2.9214
X6.2207Y-3.0214
X6.3207Y-2.9214
X6.3207Y-3.0214
T4
X4.5079Y-3.563
X4.6079Y-3.563
X4.7079Y-3.563
X3.9272Y-2.976
X3.9272Y-3.376
T5
X4.3701Y-3.8309
X4.3701Y-4.1309
X4.3701Y-4.3309
X5.1701Y-3.8309
X5.1701Y-4.2309
X5.1701Y-4.6309
X4.3809Y-3.248
X5.1809Y-3.248
T6
X4.0551Y-3.5827
X4.0551Y-3.7205
X5.6594Y-4.813
X5.7972Y-4.813
X4.0551Y-4.1535
X4.0551Y-4.2913
T7
X6.0827Y-2.4114
X6.1181Y-2.2362
X6.1181Y-2.6457
X6.9921Y-2.1772
X6.9921Y-2.6457
X7.0276Y-2.4114
T0
M30
