%FSLAX45Y45*%
G04 Gerber Fmt 4.5, Leading zero omitted, Abs format (unit mm)*
G04 Created by KiCad (PCBNEW (5.1.5-0-10_14)) date 2020-04-23 09:13:12*
%MOMM*%
%LPD*%
G04 APERTURE LIST*
%TA.AperFunction,Profile*%
%ADD10C,0.100000*%
%TD*%
%ADD11C,0.200000*%
%ADD12C,0.300000*%
G04 APERTURE END LIST*
D10*
X17025000Y-10475000D02*
X17025000Y-7250000D01*
X16850000Y-12775000D02*
X17025000Y-12775000D01*
X9750000Y-5100000D02*
X9750000Y-6200000D01*
X18250000Y-5100000D02*
X9750000Y-5100000D01*
X18250000Y-7250000D02*
X18250000Y-5100000D01*
X17025000Y-7250000D02*
X18250000Y-7250000D01*
X17025000Y-12775000D02*
X17025000Y-10475000D01*
X10750000Y-12775000D02*
X16850000Y-12775000D01*
X9750000Y-12775000D02*
X10750000Y-12775000D01*
X9750000Y-6200000D02*
X9750000Y-12775000D01*
D11*
X10130000Y-6930000D02*
X10170000Y-6970000D01*
X10170000Y-6930000D02*
X10130000Y-6970000D01*
X10280000Y-6930000D02*
X10320000Y-6970000D01*
X10320000Y-6930000D02*
X10280000Y-6970000D01*
X14880000Y-9905000D02*
X14920000Y-9945000D01*
X14920000Y-9905000D02*
X14880000Y-9945000D01*
X14880000Y-10130000D02*
X14920000Y-10170000D01*
X14920000Y-10130000D02*
X14880000Y-10170000D01*
X15366000Y-9294000D02*
X15406000Y-9334000D01*
X15406000Y-9294000D02*
X15366000Y-9334000D01*
X15892500Y-10167500D02*
X15932500Y-10207500D01*
X15932500Y-10167500D02*
X15892500Y-10207500D01*
X16005000Y-8605000D02*
X16045000Y-8645000D01*
X16045000Y-8605000D02*
X16005000Y-8645000D01*
X16505000Y-8455000D02*
X16545000Y-8495000D01*
X16545000Y-8455000D02*
X16505000Y-8495000D01*
X15290000Y-9925000D02*
G75*
G03X15290000Y-9925000I-40000J0D01*
G01*
X15290000Y-10179000D02*
G75*
G03X15290000Y-10179000I-40000J0D01*
G01*
X15290000Y-10433000D02*
G75*
G03X15290000Y-10433000I-40000J0D01*
G01*
X15290000Y-10687000D02*
G75*
G03X15290000Y-10687000I-40000J0D01*
G01*
X15290000Y-10941000D02*
G75*
G03X15290000Y-10941000I-40000J0D01*
G01*
X15290000Y-11195000D02*
G75*
G03X15290000Y-11195000I-40000J0D01*
G01*
X15290000Y-11449000D02*
G75*
G03X15290000Y-11449000I-40000J0D01*
G01*
X15290000Y-11703000D02*
G75*
G03X15290000Y-11703000I-40000J0D01*
G01*
X16306000Y-9925000D02*
G75*
G03X16306000Y-9925000I-40000J0D01*
G01*
X16306000Y-10179000D02*
G75*
G03X16306000Y-10179000I-40000J0D01*
G01*
X16306000Y-10433000D02*
G75*
G03X16306000Y-10433000I-40000J0D01*
G01*
X16306000Y-10687000D02*
G75*
G03X16306000Y-10687000I-40000J0D01*
G01*
X16306000Y-10941000D02*
G75*
G03X16306000Y-10941000I-40000J0D01*
G01*
X16306000Y-11195000D02*
G75*
G03X16306000Y-11195000I-40000J0D01*
G01*
X16306000Y-11449000D02*
G75*
G03X16306000Y-11449000I-40000J0D01*
G01*
X16306000Y-11703000D02*
G75*
G03X16306000Y-11703000I-40000J0D01*
G01*
X15465000Y-8100000D02*
G75*
G03X15465000Y-8100000I-40000J0D01*
G01*
X15465000Y-9116000D02*
G75*
G03X15465000Y-9116000I-40000J0D01*
G01*
X13579978Y-8229092D02*
G75*
G03X13579978Y-8229092I-40000J0D01*
G01*
X13579978Y-8729092D02*
G75*
G03X13579978Y-8729092I-40000J0D01*
G01*
X16665000Y-9850000D02*
G75*
G03X16665000Y-9850000I-40000J0D01*
G01*
X16665000Y-10350000D02*
G75*
G03X16665000Y-10350000I-40000J0D01*
G01*
X15560000Y-6425000D02*
G75*
G03X15560000Y-6425000I-40000J0D01*
G01*
X16390000Y-6400000D02*
G75*
G03X16390000Y-6400000I-40000J0D01*
G01*
X16590000Y-6400000D02*
G75*
G03X16590000Y-6400000I-40000J0D01*
G01*
X16790000Y-6400000D02*
G75*
G03X16790000Y-6400000I-40000J0D01*
G01*
X16990000Y-6400000D02*
G75*
G03X16990000Y-6400000I-40000J0D01*
G01*
X17820000Y-5825000D02*
G75*
G03X17820000Y-5825000I-40000J0D01*
G01*
X12140000Y-6550000D02*
G75*
G03X12140000Y-6550000I-40000J0D01*
G01*
X13156000Y-6550000D02*
G75*
G03X13156000Y-6550000I-40000J0D01*
G01*
X14087470Y-8141970D02*
G75*
G03X14087470Y-8141970I-40000J0D01*
G01*
X14087470Y-8903970D02*
G75*
G03X14087470Y-8903970I-40000J0D01*
G01*
X14341470Y-8141970D02*
G75*
G03X14341470Y-8141970I-40000J0D01*
G01*
X14341470Y-8903970D02*
G75*
G03X14341470Y-8903970I-40000J0D01*
G01*
X14595470Y-8141970D02*
G75*
G03X14595470Y-8141970I-40000J0D01*
G01*
X14595470Y-8903970D02*
G75*
G03X14595470Y-8903970I-40000J0D01*
G01*
X14849470Y-8141970D02*
G75*
G03X14849470Y-8141970I-40000J0D01*
G01*
X14849470Y-8903970D02*
G75*
G03X14849470Y-8903970I-40000J0D01*
G01*
X10690000Y-6550000D02*
G75*
G03X10690000Y-6550000I-40000J0D01*
G01*
X11706000Y-6550000D02*
G75*
G03X11706000Y-6550000I-40000J0D01*
G01*
X13890000Y-9525000D02*
G75*
G03X13890000Y-9525000I-40000J0D01*
G01*
X14906000Y-9525000D02*
G75*
G03X14906000Y-9525000I-40000J0D01*
G01*
X15299000Y-12025000D02*
G75*
G03X15299000Y-12025000I-40000J0D01*
G01*
X16315000Y-12025000D02*
G75*
G03X16315000Y-12025000I-40000J0D01*
G01*
X16065000Y-9475000D02*
G75*
G03X16065000Y-9475000I-40000J0D01*
G01*
X16565000Y-9475000D02*
G75*
G03X16565000Y-9475000I-40000J0D01*
G01*
X15928000Y-8275000D02*
G75*
G03X15928000Y-8275000I-40000J0D01*
G01*
X15928000Y-9037000D02*
G75*
G03X15928000Y-9037000I-40000J0D01*
G01*
X16182000Y-8275000D02*
G75*
G03X16182000Y-8275000I-40000J0D01*
G01*
X16182000Y-9037000D02*
G75*
G03X16182000Y-9037000I-40000J0D01*
G01*
X16436000Y-8275000D02*
G75*
G03X16436000Y-8275000I-40000J0D01*
G01*
X16436000Y-9037000D02*
G75*
G03X16436000Y-9037000I-40000J0D01*
G01*
X16690000Y-8275000D02*
G75*
G03X16690000Y-8275000I-40000J0D01*
G01*
X16690000Y-9037000D02*
G75*
G03X16690000Y-9037000I-40000J0D01*
G01*
X12540000Y-9050000D02*
G75*
G03X12540000Y-9050000I-40000J0D01*
G01*
X13556000Y-9050000D02*
G75*
G03X13556000Y-9050000I-40000J0D01*
G01*
X13665000Y-10125000D02*
G75*
G03X13665000Y-10125000I-40000J0D01*
G01*
X13665000Y-10625000D02*
G75*
G03X13665000Y-10625000I-40000J0D01*
G01*
X10088000Y-5800000D02*
X10088000Y-5900000D01*
X10038000Y-5850000D02*
X10138000Y-5850000D01*
X10342000Y-5800000D02*
X10342000Y-5900000D01*
X10292000Y-5850000D02*
X10392000Y-5850000D01*
X10596000Y-5800000D02*
X10596000Y-5900000D01*
X10546000Y-5850000D02*
X10646000Y-5850000D01*
X10850000Y-5800000D02*
X10850000Y-5900000D01*
X10800000Y-5850000D02*
X10900000Y-5850000D01*
X12038000Y-5800000D02*
X12038000Y-5900000D01*
X11988000Y-5850000D02*
X12088000Y-5850000D01*
X12292000Y-5800000D02*
X12292000Y-5900000D01*
X12242000Y-5850000D02*
X12342000Y-5850000D01*
X12546000Y-5800000D02*
X12546000Y-5900000D01*
X12496000Y-5850000D02*
X12596000Y-5850000D01*
X12800000Y-5800000D02*
X12800000Y-5900000D01*
X12750000Y-5850000D02*
X12850000Y-5850000D01*
X14975000Y-6225000D02*
X14975000Y-6325000D01*
X14925000Y-6275000D02*
X15025000Y-6275000D01*
X14975000Y-6479000D02*
X14975000Y-6579000D01*
X14925000Y-6529000D02*
X15025000Y-6529000D01*
X14975000Y-6733000D02*
X14975000Y-6833000D01*
X14925000Y-6783000D02*
X15025000Y-6783000D01*
X14975000Y-6987000D02*
X14975000Y-7087000D01*
X14925000Y-7037000D02*
X15025000Y-7037000D01*
X14350000Y-10075000D02*
X14350000Y-10175000D01*
X14300000Y-10125000D02*
X14400000Y-10125000D01*
X14350000Y-10575000D02*
X14350000Y-10675000D01*
X14300000Y-10625000D02*
X14400000Y-10625000D01*
X13688000Y-6300000D02*
X13688000Y-6400000D01*
X13638000Y-6350000D02*
X13738000Y-6350000D01*
X13942000Y-6300000D02*
X13942000Y-6400000D01*
X13892000Y-6350000D02*
X13992000Y-6350000D01*
X14196000Y-6300000D02*
X14196000Y-6400000D01*
X14146000Y-6350000D02*
X14246000Y-6350000D01*
X14450000Y-6300000D02*
X14450000Y-6400000D01*
X14400000Y-6350000D02*
X14500000Y-6350000D01*
X13692000Y-5800000D02*
X13692000Y-5900000D01*
X13642000Y-5850000D02*
X13742000Y-5850000D01*
X13946000Y-5800000D02*
X13946000Y-5900000D01*
X13896000Y-5850000D02*
X13996000Y-5850000D01*
X14200000Y-5800000D02*
X14200000Y-5900000D01*
X14150000Y-5850000D02*
X14250000Y-5850000D01*
X14454000Y-5800000D02*
X14454000Y-5900000D01*
X14404000Y-5850000D02*
X14504000Y-5850000D01*
X11228586Y-7370259D02*
X11228586Y-7470259D01*
X11178586Y-7420259D02*
X11278586Y-7420259D01*
X11228586Y-7624259D02*
X11228586Y-7724259D01*
X11178586Y-7674259D02*
X11278586Y-7674259D01*
X11482586Y-7370259D02*
X11482586Y-7470259D01*
X11432586Y-7420259D02*
X11532586Y-7420259D01*
X11482586Y-7624259D02*
X11482586Y-7724259D01*
X11432586Y-7674259D02*
X11532586Y-7674259D01*
X11736586Y-7370259D02*
X11736586Y-7470259D01*
X11686586Y-7420259D02*
X11786586Y-7420259D01*
X11736586Y-7624259D02*
X11736586Y-7724259D01*
X11686586Y-7674259D02*
X11786586Y-7674259D01*
X11990586Y-7370259D02*
X11990586Y-7470259D01*
X11940586Y-7420259D02*
X12040586Y-7420259D01*
X11990586Y-7624259D02*
X11990586Y-7724259D01*
X11940586Y-7674259D02*
X12040586Y-7674259D01*
X12244586Y-7370259D02*
X12244586Y-7470259D01*
X12194586Y-7420259D02*
X12294586Y-7420259D01*
X12244586Y-7624259D02*
X12244586Y-7724259D01*
X12194586Y-7674259D02*
X12294586Y-7674259D01*
X12498586Y-7370259D02*
X12498586Y-7470259D01*
X12448586Y-7420259D02*
X12548586Y-7420259D01*
X12498586Y-7624259D02*
X12498586Y-7724259D01*
X12448586Y-7674259D02*
X12548586Y-7674259D01*
X12752586Y-7370259D02*
X12752586Y-7470259D01*
X12702586Y-7420259D02*
X12802586Y-7420259D01*
X12752586Y-7624259D02*
X12752586Y-7724259D01*
X12702586Y-7674259D02*
X12802586Y-7674259D01*
X13006586Y-7370259D02*
X13006586Y-7470259D01*
X12956586Y-7420259D02*
X13056586Y-7420259D01*
X13006586Y-7624259D02*
X13006586Y-7724259D01*
X12956586Y-7674259D02*
X13056586Y-7674259D01*
X13260586Y-7370259D02*
X13260586Y-7470259D01*
X13210586Y-7420259D02*
X13310586Y-7420259D01*
X13260586Y-7624259D02*
X13260586Y-7724259D01*
X13210586Y-7674259D02*
X13310586Y-7674259D01*
X13514586Y-7370259D02*
X13514586Y-7470259D01*
X13464586Y-7420259D02*
X13564586Y-7420259D01*
X13514586Y-7624259D02*
X13514586Y-7724259D01*
X13464586Y-7674259D02*
X13564586Y-7674259D01*
X13768586Y-7370259D02*
X13768586Y-7470259D01*
X13718586Y-7420259D02*
X13818586Y-7420259D01*
X13768586Y-7624259D02*
X13768586Y-7724259D01*
X13718586Y-7674259D02*
X13818586Y-7674259D01*
X14022586Y-7370259D02*
X14022586Y-7470259D01*
X13972586Y-7420259D02*
X14072586Y-7420259D01*
X14022586Y-7624259D02*
X14022586Y-7724259D01*
X13972586Y-7674259D02*
X14072586Y-7674259D01*
X14276586Y-7370259D02*
X14276586Y-7470259D01*
X14226586Y-7420259D02*
X14326586Y-7420259D01*
X14276586Y-7624259D02*
X14276586Y-7724259D01*
X14226586Y-7674259D02*
X14326586Y-7674259D01*
X14530586Y-7370259D02*
X14530586Y-7470259D01*
X14480586Y-7420259D02*
X14580586Y-7420259D01*
X14530586Y-7624259D02*
X14530586Y-7724259D01*
X14480586Y-7674259D02*
X14580586Y-7674259D01*
X14784586Y-7370259D02*
X14784586Y-7470259D01*
X14734586Y-7420259D02*
X14834586Y-7420259D01*
X14784586Y-7624259D02*
X14784586Y-7724259D01*
X14734586Y-7674259D02*
X14834586Y-7674259D01*
X15038586Y-7370259D02*
X15038586Y-7470259D01*
X14988586Y-7420259D02*
X15088586Y-7420259D01*
X15038586Y-7624259D02*
X15038586Y-7724259D01*
X14988586Y-7674259D02*
X15088586Y-7674259D01*
X15292586Y-7370259D02*
X15292586Y-7470259D01*
X15242586Y-7420259D02*
X15342586Y-7420259D01*
X15292586Y-7624259D02*
X15292586Y-7724259D01*
X15242586Y-7674259D02*
X15342586Y-7674259D01*
X15546586Y-7370259D02*
X15546586Y-7470259D01*
X15496586Y-7420259D02*
X15596586Y-7420259D01*
X15546586Y-7624259D02*
X15546586Y-7724259D01*
X15496586Y-7674259D02*
X15596586Y-7674259D01*
X15800586Y-7370259D02*
X15800586Y-7470259D01*
X15750586Y-7420259D02*
X15850586Y-7420259D01*
X15800586Y-7624259D02*
X15800586Y-7724259D01*
X15750586Y-7674259D02*
X15850586Y-7674259D01*
X16054586Y-7370259D02*
X16054586Y-7470259D01*
X16004586Y-7420259D02*
X16104586Y-7420259D01*
X16054586Y-7624259D02*
X16054586Y-7724259D01*
X16004586Y-7674259D02*
X16104586Y-7674259D01*
X11488891Y-9088891D02*
X11488891Y-9011109D01*
X11411109Y-9011109D01*
X11411109Y-9088891D01*
X11488891Y-9088891D01*
X11742891Y-9088891D02*
X11742891Y-9011109D01*
X11665109Y-9011109D01*
X11665109Y-9088891D01*
X11742891Y-9088891D01*
X11996891Y-9088891D02*
X11996891Y-9011109D01*
X11919109Y-9011109D01*
X11919109Y-9088891D01*
X11996891Y-9088891D01*
X10013891Y-7597891D02*
X10013891Y-7520109D01*
X9936109Y-7520109D01*
X9936109Y-7597891D01*
X10013891Y-7597891D01*
X10013891Y-8613891D02*
X10013891Y-8536109D01*
X9936109Y-8536109D01*
X9936109Y-8613891D01*
X10013891Y-8613891D01*
X11100000Y-9790550D02*
X11160000Y-9730550D01*
X11100000Y-9670550D01*
X11040000Y-9730550D01*
X11100000Y-9790550D01*
X11100000Y-10552550D02*
X11160000Y-10492550D01*
X11100000Y-10432550D01*
X11040000Y-10492550D01*
X11100000Y-10552550D01*
X11100000Y-11060550D02*
X11160000Y-11000550D01*
X11100000Y-10940550D01*
X11040000Y-11000550D01*
X11100000Y-11060550D01*
X13132000Y-9790550D02*
X13192000Y-9730550D01*
X13132000Y-9670550D01*
X13072000Y-9730550D01*
X13132000Y-9790550D01*
X13132000Y-10806550D02*
X13192000Y-10746550D01*
X13132000Y-10686550D01*
X13072000Y-10746550D01*
X13132000Y-10806550D01*
X13132000Y-11822550D02*
X13192000Y-11762550D01*
X13132000Y-11702550D01*
X13072000Y-11762550D01*
X13132000Y-11822550D01*
X11127486Y-8310000D02*
X11187486Y-8250000D01*
X11127486Y-8190000D01*
X11067486Y-8250000D01*
X11127486Y-8310000D01*
X13159486Y-8310000D02*
X13219486Y-8250000D01*
X13159486Y-8190000D01*
X13099486Y-8250000D01*
X13159486Y-8310000D01*
X10220000Y-9020000D02*
X10380000Y-9180000D01*
X10380000Y-9020000D02*
X10220000Y-9180000D01*
X10380000Y-9100000D02*
G75*
G03X10380000Y-9100000I-80000J0D01*
G01*
X10220000Y-9370000D02*
X10380000Y-9530000D01*
X10380000Y-9370000D02*
X10220000Y-9530000D01*
X10380000Y-9450000D02*
G75*
G03X10380000Y-9450000I-80000J0D01*
G01*
X14295000Y-12145000D02*
X14455000Y-12305000D01*
X14455000Y-12145000D02*
X14295000Y-12305000D01*
X14455000Y-12225000D02*
G75*
G03X14455000Y-12225000I-80000J0D01*
G01*
X14645000Y-12145000D02*
X14805000Y-12305000D01*
X14805000Y-12145000D02*
X14645000Y-12305000D01*
X14805000Y-12225000D02*
G75*
G03X14805000Y-12225000I-80000J0D01*
G01*
X10220000Y-10470000D02*
X10380000Y-10630000D01*
X10380000Y-10470000D02*
X10220000Y-10630000D01*
X10380000Y-10550000D02*
G75*
G03X10380000Y-10550000I-80000J0D01*
G01*
X10220000Y-10820000D02*
X10380000Y-10980000D01*
X10380000Y-10820000D02*
X10220000Y-10980000D01*
X10380000Y-10900000D02*
G75*
G03X10380000Y-10900000I-80000J0D01*
G01*
X15350000Y-6025000D02*
X15550000Y-6225000D01*
X15550000Y-6025000D02*
X15350000Y-6225000D01*
X15450000Y-6025000D02*
X15450000Y-6225000D01*
X15350000Y-6125000D02*
X15550000Y-6125000D01*
X15440000Y-5580000D02*
X15640000Y-5780000D01*
X15640000Y-5580000D02*
X15440000Y-5780000D01*
X15540000Y-5580000D02*
X15540000Y-5780000D01*
X15440000Y-5680000D02*
X15640000Y-5680000D01*
X15440000Y-6620000D02*
X15640000Y-6820000D01*
X15640000Y-6620000D02*
X15440000Y-6820000D01*
X15540000Y-6620000D02*
X15540000Y-6820000D01*
X15440000Y-6720000D02*
X15640000Y-6720000D01*
X17660000Y-5430000D02*
X17860000Y-5630000D01*
X17860000Y-5430000D02*
X17660000Y-5630000D01*
X17760000Y-5430000D02*
X17760000Y-5630000D01*
X17660000Y-5530000D02*
X17860000Y-5530000D01*
X17660000Y-6620000D02*
X17860000Y-6820000D01*
X17860000Y-6620000D02*
X17660000Y-6820000D01*
X17760000Y-6620000D02*
X17760000Y-6820000D01*
X17660000Y-6720000D02*
X17860000Y-6720000D01*
X17750000Y-6025000D02*
X17950000Y-6225000D01*
X17950000Y-6025000D02*
X17750000Y-6225000D01*
X17850000Y-6025000D02*
X17850000Y-6225000D01*
X17750000Y-6125000D02*
X17950000Y-6125000D01*
D12*
X10031428Y-13245714D02*
X10031428Y-12945714D01*
X10102857Y-12945714D01*
X10145714Y-12960000D01*
X10174286Y-12988571D01*
X10188571Y-13017143D01*
X10202857Y-13074286D01*
X10202857Y-13117143D01*
X10188571Y-13174286D01*
X10174286Y-13202857D01*
X10145714Y-13231429D01*
X10102857Y-13245714D01*
X10031428Y-13245714D01*
X10331428Y-13245714D02*
X10331428Y-13045714D01*
X10331428Y-13102857D02*
X10345714Y-13074286D01*
X10360000Y-13060000D01*
X10388571Y-13045714D01*
X10417143Y-13045714D01*
X10517143Y-13245714D02*
X10517143Y-13045714D01*
X10517143Y-12945714D02*
X10502857Y-12960000D01*
X10517143Y-12974286D01*
X10531428Y-12960000D01*
X10517143Y-12945714D01*
X10517143Y-12974286D01*
X10702857Y-13245714D02*
X10674286Y-13231429D01*
X10660000Y-13202857D01*
X10660000Y-12945714D01*
X10860000Y-13245714D02*
X10831428Y-13231429D01*
X10817143Y-13202857D01*
X10817143Y-12945714D01*
X11202857Y-13245714D02*
X11202857Y-12945714D01*
X11302857Y-13160000D01*
X11402857Y-12945714D01*
X11402857Y-13245714D01*
X11674286Y-13245714D02*
X11674286Y-13088571D01*
X11660000Y-13060000D01*
X11631428Y-13045714D01*
X11574286Y-13045714D01*
X11545714Y-13060000D01*
X11674286Y-13231429D02*
X11645714Y-13245714D01*
X11574286Y-13245714D01*
X11545714Y-13231429D01*
X11531428Y-13202857D01*
X11531428Y-13174286D01*
X11545714Y-13145714D01*
X11574286Y-13131429D01*
X11645714Y-13131429D01*
X11674286Y-13117143D01*
X11817143Y-13045714D02*
X11817143Y-13345714D01*
X11817143Y-13060000D02*
X11845714Y-13045714D01*
X11902857Y-13045714D01*
X11931428Y-13060000D01*
X11945714Y-13074286D01*
X11960000Y-13102857D01*
X11960000Y-13188571D01*
X11945714Y-13217143D01*
X11931428Y-13231429D01*
X11902857Y-13245714D01*
X11845714Y-13245714D01*
X11817143Y-13231429D01*
X12088571Y-13217143D02*
X12102857Y-13231429D01*
X12088571Y-13245714D01*
X12074286Y-13231429D01*
X12088571Y-13217143D01*
X12088571Y-13245714D01*
X12088571Y-13060000D02*
X12102857Y-13074286D01*
X12088571Y-13088571D01*
X12074286Y-13074286D01*
X12088571Y-13060000D01*
X12088571Y-13088571D01*
X9705000Y-13720000D02*
X9745000Y-13760000D01*
X9745000Y-13720000D02*
X9705000Y-13760000D01*
X10088571Y-13575714D02*
X10117143Y-13575714D01*
X10145714Y-13590000D01*
X10160000Y-13604286D01*
X10174286Y-13632857D01*
X10188571Y-13690000D01*
X10188571Y-13761429D01*
X10174286Y-13818571D01*
X10160000Y-13847143D01*
X10145714Y-13861429D01*
X10117143Y-13875714D01*
X10088571Y-13875714D01*
X10060000Y-13861429D01*
X10045714Y-13847143D01*
X10031428Y-13818571D01*
X10017143Y-13761429D01*
X10017143Y-13690000D01*
X10031428Y-13632857D01*
X10045714Y-13604286D01*
X10060000Y-13590000D01*
X10088571Y-13575714D01*
X10317143Y-13847143D02*
X10331428Y-13861429D01*
X10317143Y-13875714D01*
X10302857Y-13861429D01*
X10317143Y-13847143D01*
X10317143Y-13875714D01*
X10588571Y-13675714D02*
X10588571Y-13875714D01*
X10517143Y-13561429D02*
X10445714Y-13775714D01*
X10631428Y-13775714D01*
X10802857Y-13575714D02*
X10831428Y-13575714D01*
X10860000Y-13590000D01*
X10874286Y-13604286D01*
X10888571Y-13632857D01*
X10902857Y-13690000D01*
X10902857Y-13761429D01*
X10888571Y-13818571D01*
X10874286Y-13847143D01*
X10860000Y-13861429D01*
X10831428Y-13875714D01*
X10802857Y-13875714D01*
X10774286Y-13861429D01*
X10760000Y-13847143D01*
X10745714Y-13818571D01*
X10731428Y-13761429D01*
X10731428Y-13690000D01*
X10745714Y-13632857D01*
X10760000Y-13604286D01*
X10774286Y-13590000D01*
X10802857Y-13575714D01*
X11031428Y-13875714D02*
X11031428Y-13675714D01*
X11031428Y-13704286D02*
X11045714Y-13690000D01*
X11074286Y-13675714D01*
X11117143Y-13675714D01*
X11145714Y-13690000D01*
X11160000Y-13718571D01*
X11160000Y-13875714D01*
X11160000Y-13718571D02*
X11174286Y-13690000D01*
X11202857Y-13675714D01*
X11245714Y-13675714D01*
X11274286Y-13690000D01*
X11288571Y-13718571D01*
X11288571Y-13875714D01*
X11431428Y-13875714D02*
X11431428Y-13675714D01*
X11431428Y-13704286D02*
X11445714Y-13690000D01*
X11474286Y-13675714D01*
X11517143Y-13675714D01*
X11545714Y-13690000D01*
X11560000Y-13718571D01*
X11560000Y-13875714D01*
X11560000Y-13718571D02*
X11574286Y-13690000D01*
X11602857Y-13675714D01*
X11645714Y-13675714D01*
X11674286Y-13690000D01*
X11688571Y-13718571D01*
X11688571Y-13875714D01*
X12274286Y-13561429D02*
X12017143Y-13947143D01*
X12660000Y-13575714D02*
X12688571Y-13575714D01*
X12717143Y-13590000D01*
X12731428Y-13604286D01*
X12745714Y-13632857D01*
X12760000Y-13690000D01*
X12760000Y-13761429D01*
X12745714Y-13818571D01*
X12731428Y-13847143D01*
X12717143Y-13861429D01*
X12688571Y-13875714D01*
X12660000Y-13875714D01*
X12631428Y-13861429D01*
X12617143Y-13847143D01*
X12602857Y-13818571D01*
X12588571Y-13761429D01*
X12588571Y-13690000D01*
X12602857Y-13632857D01*
X12617143Y-13604286D01*
X12631428Y-13590000D01*
X12660000Y-13575714D01*
X12888571Y-13847143D02*
X12902857Y-13861429D01*
X12888571Y-13875714D01*
X12874286Y-13861429D01*
X12888571Y-13847143D01*
X12888571Y-13875714D01*
X13088571Y-13575714D02*
X13117143Y-13575714D01*
X13145714Y-13590000D01*
X13160000Y-13604286D01*
X13174286Y-13632857D01*
X13188571Y-13690000D01*
X13188571Y-13761429D01*
X13174286Y-13818571D01*
X13160000Y-13847143D01*
X13145714Y-13861429D01*
X13117143Y-13875714D01*
X13088571Y-13875714D01*
X13060000Y-13861429D01*
X13045714Y-13847143D01*
X13031428Y-13818571D01*
X13017143Y-13761429D01*
X13017143Y-13690000D01*
X13031428Y-13632857D01*
X13045714Y-13604286D01*
X13060000Y-13590000D01*
X13088571Y-13575714D01*
X13474286Y-13875714D02*
X13302857Y-13875714D01*
X13388571Y-13875714D02*
X13388571Y-13575714D01*
X13360000Y-13618571D01*
X13331428Y-13647143D01*
X13302857Y-13661429D01*
X13731428Y-13575714D02*
X13674286Y-13575714D01*
X13645714Y-13590000D01*
X13631428Y-13604286D01*
X13602857Y-13647143D01*
X13588571Y-13704286D01*
X13588571Y-13818571D01*
X13602857Y-13847143D01*
X13617143Y-13861429D01*
X13645714Y-13875714D01*
X13702857Y-13875714D01*
X13731428Y-13861429D01*
X13745714Y-13847143D01*
X13760000Y-13818571D01*
X13760000Y-13747143D01*
X13745714Y-13718571D01*
X13731428Y-13704286D01*
X13702857Y-13690000D01*
X13645714Y-13690000D01*
X13617143Y-13704286D01*
X13602857Y-13718571D01*
X13588571Y-13747143D01*
X13874286Y-13575714D02*
X13874286Y-13632857D01*
X13988571Y-13575714D02*
X13988571Y-13632857D01*
X14431428Y-13990000D02*
X14417143Y-13975714D01*
X14388571Y-13932857D01*
X14374286Y-13904286D01*
X14360000Y-13861429D01*
X14345714Y-13790000D01*
X14345714Y-13732857D01*
X14360000Y-13661429D01*
X14374286Y-13618571D01*
X14388571Y-13590000D01*
X14417143Y-13547143D01*
X14431428Y-13532857D01*
X14588571Y-13704286D02*
X14560000Y-13690000D01*
X14545714Y-13675714D01*
X14531428Y-13647143D01*
X14531428Y-13632857D01*
X14545714Y-13604286D01*
X14560000Y-13590000D01*
X14588571Y-13575714D01*
X14645714Y-13575714D01*
X14674286Y-13590000D01*
X14688571Y-13604286D01*
X14702857Y-13632857D01*
X14702857Y-13647143D01*
X14688571Y-13675714D01*
X14674286Y-13690000D01*
X14645714Y-13704286D01*
X14588571Y-13704286D01*
X14560000Y-13718571D01*
X14545714Y-13732857D01*
X14531428Y-13761429D01*
X14531428Y-13818571D01*
X14545714Y-13847143D01*
X14560000Y-13861429D01*
X14588571Y-13875714D01*
X14645714Y-13875714D01*
X14674286Y-13861429D01*
X14688571Y-13847143D01*
X14702857Y-13818571D01*
X14702857Y-13761429D01*
X14688571Y-13732857D01*
X14674286Y-13718571D01*
X14645714Y-13704286D01*
X15060000Y-13875714D02*
X15060000Y-13575714D01*
X15188571Y-13875714D02*
X15188571Y-13718571D01*
X15174286Y-13690000D01*
X15145714Y-13675714D01*
X15102857Y-13675714D01*
X15074286Y-13690000D01*
X15060000Y-13704286D01*
X15374286Y-13875714D02*
X15345714Y-13861429D01*
X15331428Y-13847143D01*
X15317143Y-13818571D01*
X15317143Y-13732857D01*
X15331428Y-13704286D01*
X15345714Y-13690000D01*
X15374286Y-13675714D01*
X15417143Y-13675714D01*
X15445714Y-13690000D01*
X15460000Y-13704286D01*
X15474286Y-13732857D01*
X15474286Y-13818571D01*
X15460000Y-13847143D01*
X15445714Y-13861429D01*
X15417143Y-13875714D01*
X15374286Y-13875714D01*
X15645714Y-13875714D02*
X15617143Y-13861429D01*
X15602857Y-13832857D01*
X15602857Y-13575714D01*
X15874286Y-13861429D02*
X15845714Y-13875714D01*
X15788571Y-13875714D01*
X15760000Y-13861429D01*
X15745714Y-13832857D01*
X15745714Y-13718571D01*
X15760000Y-13690000D01*
X15788571Y-13675714D01*
X15845714Y-13675714D01*
X15874286Y-13690000D01*
X15888571Y-13718571D01*
X15888571Y-13747143D01*
X15745714Y-13775714D01*
X16002857Y-13861429D02*
X16031428Y-13875714D01*
X16088571Y-13875714D01*
X16117143Y-13861429D01*
X16131428Y-13832857D01*
X16131428Y-13818571D01*
X16117143Y-13790000D01*
X16088571Y-13775714D01*
X16045714Y-13775714D01*
X16017143Y-13761429D01*
X16002857Y-13732857D01*
X16002857Y-13718571D01*
X16017143Y-13690000D01*
X16045714Y-13675714D01*
X16088571Y-13675714D01*
X16117143Y-13690000D01*
X16231428Y-13990000D02*
X16245714Y-13975714D01*
X16274286Y-13932857D01*
X16288571Y-13904286D01*
X16302857Y-13861429D01*
X16317143Y-13790000D01*
X16317143Y-13732857D01*
X16302857Y-13661429D01*
X16288571Y-13618571D01*
X16274286Y-13590000D01*
X16245714Y-13547143D01*
X16231428Y-13532857D01*
X9745000Y-14136000D02*
G75*
G03X9745000Y-14136000I-40000J0D01*
G01*
X10088571Y-13971714D02*
X10117143Y-13971714D01*
X10145714Y-13986000D01*
X10160000Y-14000286D01*
X10174286Y-14028857D01*
X10188571Y-14086000D01*
X10188571Y-14157429D01*
X10174286Y-14214571D01*
X10160000Y-14243143D01*
X10145714Y-14257429D01*
X10117143Y-14271714D01*
X10088571Y-14271714D01*
X10060000Y-14257429D01*
X10045714Y-14243143D01*
X10031428Y-14214571D01*
X10017143Y-14157429D01*
X10017143Y-14086000D01*
X10031428Y-14028857D01*
X10045714Y-14000286D01*
X10060000Y-13986000D01*
X10088571Y-13971714D01*
X10317143Y-14243143D02*
X10331428Y-14257429D01*
X10317143Y-14271714D01*
X10302857Y-14257429D01*
X10317143Y-14243143D01*
X10317143Y-14271714D01*
X10502857Y-14100286D02*
X10474286Y-14086000D01*
X10460000Y-14071714D01*
X10445714Y-14043143D01*
X10445714Y-14028857D01*
X10460000Y-14000286D01*
X10474286Y-13986000D01*
X10502857Y-13971714D01*
X10560000Y-13971714D01*
X10588571Y-13986000D01*
X10602857Y-14000286D01*
X10617143Y-14028857D01*
X10617143Y-14043143D01*
X10602857Y-14071714D01*
X10588571Y-14086000D01*
X10560000Y-14100286D01*
X10502857Y-14100286D01*
X10474286Y-14114571D01*
X10460000Y-14128857D01*
X10445714Y-14157429D01*
X10445714Y-14214571D01*
X10460000Y-14243143D01*
X10474286Y-14257429D01*
X10502857Y-14271714D01*
X10560000Y-14271714D01*
X10588571Y-14257429D01*
X10602857Y-14243143D01*
X10617143Y-14214571D01*
X10617143Y-14157429D01*
X10602857Y-14128857D01*
X10588571Y-14114571D01*
X10560000Y-14100286D01*
X10802857Y-13971714D02*
X10831428Y-13971714D01*
X10860000Y-13986000D01*
X10874286Y-14000286D01*
X10888571Y-14028857D01*
X10902857Y-14086000D01*
X10902857Y-14157429D01*
X10888571Y-14214571D01*
X10874286Y-14243143D01*
X10860000Y-14257429D01*
X10831428Y-14271714D01*
X10802857Y-14271714D01*
X10774286Y-14257429D01*
X10760000Y-14243143D01*
X10745714Y-14214571D01*
X10731428Y-14157429D01*
X10731428Y-14086000D01*
X10745714Y-14028857D01*
X10760000Y-14000286D01*
X10774286Y-13986000D01*
X10802857Y-13971714D01*
X11031428Y-14271714D02*
X11031428Y-14071714D01*
X11031428Y-14100286D02*
X11045714Y-14086000D01*
X11074286Y-14071714D01*
X11117143Y-14071714D01*
X11145714Y-14086000D01*
X11160000Y-14114571D01*
X11160000Y-14271714D01*
X11160000Y-14114571D02*
X11174286Y-14086000D01*
X11202857Y-14071714D01*
X11245714Y-14071714D01*
X11274286Y-14086000D01*
X11288571Y-14114571D01*
X11288571Y-14271714D01*
X11431428Y-14271714D02*
X11431428Y-14071714D01*
X11431428Y-14100286D02*
X11445714Y-14086000D01*
X11474286Y-14071714D01*
X11517143Y-14071714D01*
X11545714Y-14086000D01*
X11560000Y-14114571D01*
X11560000Y-14271714D01*
X11560000Y-14114571D02*
X11574286Y-14086000D01*
X11602857Y-14071714D01*
X11645714Y-14071714D01*
X11674286Y-14086000D01*
X11688571Y-14114571D01*
X11688571Y-14271714D01*
X12274286Y-13957429D02*
X12017143Y-14343143D01*
X12660000Y-13971714D02*
X12688571Y-13971714D01*
X12717143Y-13986000D01*
X12731428Y-14000286D01*
X12745714Y-14028857D01*
X12760000Y-14086000D01*
X12760000Y-14157429D01*
X12745714Y-14214571D01*
X12731428Y-14243143D01*
X12717143Y-14257429D01*
X12688571Y-14271714D01*
X12660000Y-14271714D01*
X12631428Y-14257429D01*
X12617143Y-14243143D01*
X12602857Y-14214571D01*
X12588571Y-14157429D01*
X12588571Y-14086000D01*
X12602857Y-14028857D01*
X12617143Y-14000286D01*
X12631428Y-13986000D01*
X12660000Y-13971714D01*
X12888571Y-14243143D02*
X12902857Y-14257429D01*
X12888571Y-14271714D01*
X12874286Y-14257429D01*
X12888571Y-14243143D01*
X12888571Y-14271714D01*
X13088571Y-13971714D02*
X13117143Y-13971714D01*
X13145714Y-13986000D01*
X13160000Y-14000286D01*
X13174286Y-14028857D01*
X13188571Y-14086000D01*
X13188571Y-14157429D01*
X13174286Y-14214571D01*
X13160000Y-14243143D01*
X13145714Y-14257429D01*
X13117143Y-14271714D01*
X13088571Y-14271714D01*
X13060000Y-14257429D01*
X13045714Y-14243143D01*
X13031428Y-14214571D01*
X13017143Y-14157429D01*
X13017143Y-14086000D01*
X13031428Y-14028857D01*
X13045714Y-14000286D01*
X13060000Y-13986000D01*
X13088571Y-13971714D01*
X13288571Y-13971714D02*
X13474286Y-13971714D01*
X13374286Y-14086000D01*
X13417143Y-14086000D01*
X13445714Y-14100286D01*
X13460000Y-14114571D01*
X13474286Y-14143143D01*
X13474286Y-14214571D01*
X13460000Y-14243143D01*
X13445714Y-14257429D01*
X13417143Y-14271714D01*
X13331428Y-14271714D01*
X13302857Y-14257429D01*
X13288571Y-14243143D01*
X13760000Y-14271714D02*
X13588571Y-14271714D01*
X13674286Y-14271714D02*
X13674286Y-13971714D01*
X13645714Y-14014571D01*
X13617143Y-14043143D01*
X13588571Y-14057429D01*
X13874286Y-13971714D02*
X13874286Y-14028857D01*
X13988571Y-13971714D02*
X13988571Y-14028857D01*
X14431428Y-14386000D02*
X14417143Y-14371714D01*
X14388571Y-14328857D01*
X14374286Y-14300286D01*
X14360000Y-14257429D01*
X14345714Y-14186000D01*
X14345714Y-14128857D01*
X14360000Y-14057429D01*
X14374286Y-14014571D01*
X14388571Y-13986000D01*
X14417143Y-13943143D01*
X14431428Y-13928857D01*
X14688571Y-13971714D02*
X14545714Y-13971714D01*
X14531428Y-14114571D01*
X14545714Y-14100286D01*
X14574286Y-14086000D01*
X14645714Y-14086000D01*
X14674286Y-14100286D01*
X14688571Y-14114571D01*
X14702857Y-14143143D01*
X14702857Y-14214571D01*
X14688571Y-14243143D01*
X14674286Y-14257429D01*
X14645714Y-14271714D01*
X14574286Y-14271714D01*
X14545714Y-14257429D01*
X14531428Y-14243143D01*
X14874286Y-14100286D02*
X14845714Y-14086000D01*
X14831428Y-14071714D01*
X14817143Y-14043143D01*
X14817143Y-14028857D01*
X14831428Y-14000286D01*
X14845714Y-13986000D01*
X14874286Y-13971714D01*
X14931428Y-13971714D01*
X14960000Y-13986000D01*
X14974286Y-14000286D01*
X14988571Y-14028857D01*
X14988571Y-14043143D01*
X14974286Y-14071714D01*
X14960000Y-14086000D01*
X14931428Y-14100286D01*
X14874286Y-14100286D01*
X14845714Y-14114571D01*
X14831428Y-14128857D01*
X14817143Y-14157429D01*
X14817143Y-14214571D01*
X14831428Y-14243143D01*
X14845714Y-14257429D01*
X14874286Y-14271714D01*
X14931428Y-14271714D01*
X14960000Y-14257429D01*
X14974286Y-14243143D01*
X14988571Y-14214571D01*
X14988571Y-14157429D01*
X14974286Y-14128857D01*
X14960000Y-14114571D01*
X14931428Y-14100286D01*
X15345714Y-14271714D02*
X15345714Y-13971714D01*
X15474286Y-14271714D02*
X15474286Y-14114571D01*
X15460000Y-14086000D01*
X15431428Y-14071714D01*
X15388571Y-14071714D01*
X15360000Y-14086000D01*
X15345714Y-14100286D01*
X15660000Y-14271714D02*
X15631428Y-14257429D01*
X15617143Y-14243143D01*
X15602857Y-14214571D01*
X15602857Y-14128857D01*
X15617143Y-14100286D01*
X15631428Y-14086000D01*
X15660000Y-14071714D01*
X15702857Y-14071714D01*
X15731428Y-14086000D01*
X15745714Y-14100286D01*
X15760000Y-14128857D01*
X15760000Y-14214571D01*
X15745714Y-14243143D01*
X15731428Y-14257429D01*
X15702857Y-14271714D01*
X15660000Y-14271714D01*
X15931428Y-14271714D02*
X15902857Y-14257429D01*
X15888571Y-14228857D01*
X15888571Y-13971714D01*
X16160000Y-14257429D02*
X16131428Y-14271714D01*
X16074286Y-14271714D01*
X16045714Y-14257429D01*
X16031428Y-14228857D01*
X16031428Y-14114571D01*
X16045714Y-14086000D01*
X16074286Y-14071714D01*
X16131428Y-14071714D01*
X16160000Y-14086000D01*
X16174286Y-14114571D01*
X16174286Y-14143143D01*
X16031428Y-14171714D01*
X16288571Y-14257429D02*
X16317143Y-14271714D01*
X16374286Y-14271714D01*
X16402857Y-14257429D01*
X16417143Y-14228857D01*
X16417143Y-14214571D01*
X16402857Y-14186000D01*
X16374286Y-14171714D01*
X16331428Y-14171714D01*
X16302857Y-14157429D01*
X16288571Y-14128857D01*
X16288571Y-14114571D01*
X16302857Y-14086000D01*
X16331428Y-14071714D01*
X16374286Y-14071714D01*
X16402857Y-14086000D01*
X16517143Y-14386000D02*
X16531428Y-14371714D01*
X16560000Y-14328857D01*
X16574286Y-14300286D01*
X16588571Y-14257429D01*
X16602857Y-14186000D01*
X16602857Y-14128857D01*
X16588571Y-14057429D01*
X16574286Y-14014571D01*
X16560000Y-13986000D01*
X16531428Y-13943143D01*
X16517143Y-13928857D01*
X9695000Y-14482000D02*
X9695000Y-14582000D01*
X9645000Y-14532000D02*
X9745000Y-14532000D01*
X10188571Y-14667714D02*
X10017143Y-14667714D01*
X10102857Y-14667714D02*
X10102857Y-14367714D01*
X10074286Y-14410571D01*
X10045714Y-14439143D01*
X10017143Y-14453429D01*
X10317143Y-14639143D02*
X10331428Y-14653429D01*
X10317143Y-14667714D01*
X10302857Y-14653429D01*
X10317143Y-14639143D01*
X10317143Y-14667714D01*
X10517143Y-14367714D02*
X10545714Y-14367714D01*
X10574286Y-14382000D01*
X10588571Y-14396286D01*
X10602857Y-14424857D01*
X10617143Y-14482000D01*
X10617143Y-14553429D01*
X10602857Y-14610571D01*
X10588571Y-14639143D01*
X10574286Y-14653429D01*
X10545714Y-14667714D01*
X10517143Y-14667714D01*
X10488571Y-14653429D01*
X10474286Y-14639143D01*
X10460000Y-14610571D01*
X10445714Y-14553429D01*
X10445714Y-14482000D01*
X10460000Y-14424857D01*
X10474286Y-14396286D01*
X10488571Y-14382000D01*
X10517143Y-14367714D01*
X10802857Y-14367714D02*
X10831428Y-14367714D01*
X10860000Y-14382000D01*
X10874286Y-14396286D01*
X10888571Y-14424857D01*
X10902857Y-14482000D01*
X10902857Y-14553429D01*
X10888571Y-14610571D01*
X10874286Y-14639143D01*
X10860000Y-14653429D01*
X10831428Y-14667714D01*
X10802857Y-14667714D01*
X10774286Y-14653429D01*
X10760000Y-14639143D01*
X10745714Y-14610571D01*
X10731428Y-14553429D01*
X10731428Y-14482000D01*
X10745714Y-14424857D01*
X10760000Y-14396286D01*
X10774286Y-14382000D01*
X10802857Y-14367714D01*
X11031428Y-14667714D02*
X11031428Y-14467714D01*
X11031428Y-14496286D02*
X11045714Y-14482000D01*
X11074286Y-14467714D01*
X11117143Y-14467714D01*
X11145714Y-14482000D01*
X11160000Y-14510571D01*
X11160000Y-14667714D01*
X11160000Y-14510571D02*
X11174286Y-14482000D01*
X11202857Y-14467714D01*
X11245714Y-14467714D01*
X11274286Y-14482000D01*
X11288571Y-14510571D01*
X11288571Y-14667714D01*
X11431428Y-14667714D02*
X11431428Y-14467714D01*
X11431428Y-14496286D02*
X11445714Y-14482000D01*
X11474286Y-14467714D01*
X11517143Y-14467714D01*
X11545714Y-14482000D01*
X11560000Y-14510571D01*
X11560000Y-14667714D01*
X11560000Y-14510571D02*
X11574286Y-14482000D01*
X11602857Y-14467714D01*
X11645714Y-14467714D01*
X11674286Y-14482000D01*
X11688571Y-14510571D01*
X11688571Y-14667714D01*
X12274286Y-14353429D02*
X12017143Y-14739143D01*
X12660000Y-14367714D02*
X12688571Y-14367714D01*
X12717143Y-14382000D01*
X12731428Y-14396286D01*
X12745714Y-14424857D01*
X12760000Y-14482000D01*
X12760000Y-14553429D01*
X12745714Y-14610571D01*
X12731428Y-14639143D01*
X12717143Y-14653429D01*
X12688571Y-14667714D01*
X12660000Y-14667714D01*
X12631428Y-14653429D01*
X12617143Y-14639143D01*
X12602857Y-14610571D01*
X12588571Y-14553429D01*
X12588571Y-14482000D01*
X12602857Y-14424857D01*
X12617143Y-14396286D01*
X12631428Y-14382000D01*
X12660000Y-14367714D01*
X12888571Y-14639143D02*
X12902857Y-14653429D01*
X12888571Y-14667714D01*
X12874286Y-14653429D01*
X12888571Y-14639143D01*
X12888571Y-14667714D01*
X13088571Y-14367714D02*
X13117143Y-14367714D01*
X13145714Y-14382000D01*
X13160000Y-14396286D01*
X13174286Y-14424857D01*
X13188571Y-14482000D01*
X13188571Y-14553429D01*
X13174286Y-14610571D01*
X13160000Y-14639143D01*
X13145714Y-14653429D01*
X13117143Y-14667714D01*
X13088571Y-14667714D01*
X13060000Y-14653429D01*
X13045714Y-14639143D01*
X13031428Y-14610571D01*
X13017143Y-14553429D01*
X13017143Y-14482000D01*
X13031428Y-14424857D01*
X13045714Y-14396286D01*
X13060000Y-14382000D01*
X13088571Y-14367714D01*
X13288571Y-14367714D02*
X13474286Y-14367714D01*
X13374286Y-14482000D01*
X13417143Y-14482000D01*
X13445714Y-14496286D01*
X13460000Y-14510571D01*
X13474286Y-14539143D01*
X13474286Y-14610571D01*
X13460000Y-14639143D01*
X13445714Y-14653429D01*
X13417143Y-14667714D01*
X13331428Y-14667714D01*
X13302857Y-14653429D01*
X13288571Y-14639143D01*
X13617143Y-14667714D02*
X13674286Y-14667714D01*
X13702857Y-14653429D01*
X13717143Y-14639143D01*
X13745714Y-14596286D01*
X13760000Y-14539143D01*
X13760000Y-14424857D01*
X13745714Y-14396286D01*
X13731428Y-14382000D01*
X13702857Y-14367714D01*
X13645714Y-14367714D01*
X13617143Y-14382000D01*
X13602857Y-14396286D01*
X13588571Y-14424857D01*
X13588571Y-14496286D01*
X13602857Y-14524857D01*
X13617143Y-14539143D01*
X13645714Y-14553429D01*
X13702857Y-14553429D01*
X13731428Y-14539143D01*
X13745714Y-14524857D01*
X13760000Y-14496286D01*
X13874286Y-14367714D02*
X13874286Y-14424857D01*
X13988571Y-14367714D02*
X13988571Y-14424857D01*
X14431428Y-14782000D02*
X14417143Y-14767714D01*
X14388571Y-14724857D01*
X14374286Y-14696286D01*
X14360000Y-14653429D01*
X14345714Y-14582000D01*
X14345714Y-14524857D01*
X14360000Y-14453429D01*
X14374286Y-14410571D01*
X14388571Y-14382000D01*
X14417143Y-14339143D01*
X14431428Y-14324857D01*
X14674286Y-14367714D02*
X14617143Y-14367714D01*
X14588571Y-14382000D01*
X14574286Y-14396286D01*
X14545714Y-14439143D01*
X14531428Y-14496286D01*
X14531428Y-14610571D01*
X14545714Y-14639143D01*
X14560000Y-14653429D01*
X14588571Y-14667714D01*
X14645714Y-14667714D01*
X14674286Y-14653429D01*
X14688571Y-14639143D01*
X14702857Y-14610571D01*
X14702857Y-14539143D01*
X14688571Y-14510571D01*
X14674286Y-14496286D01*
X14645714Y-14482000D01*
X14588571Y-14482000D01*
X14560000Y-14496286D01*
X14545714Y-14510571D01*
X14531428Y-14539143D01*
X14817143Y-14396286D02*
X14831428Y-14382000D01*
X14860000Y-14367714D01*
X14931428Y-14367714D01*
X14960000Y-14382000D01*
X14974286Y-14396286D01*
X14988571Y-14424857D01*
X14988571Y-14453429D01*
X14974286Y-14496286D01*
X14802857Y-14667714D01*
X14988571Y-14667714D01*
X15345714Y-14667714D02*
X15345714Y-14367714D01*
X15474286Y-14667714D02*
X15474286Y-14510571D01*
X15460000Y-14482000D01*
X15431428Y-14467714D01*
X15388571Y-14467714D01*
X15360000Y-14482000D01*
X15345714Y-14496286D01*
X15660000Y-14667714D02*
X15631428Y-14653429D01*
X15617143Y-14639143D01*
X15602857Y-14610571D01*
X15602857Y-14524857D01*
X15617143Y-14496286D01*
X15631428Y-14482000D01*
X15660000Y-14467714D01*
X15702857Y-14467714D01*
X15731428Y-14482000D01*
X15745714Y-14496286D01*
X15760000Y-14524857D01*
X15760000Y-14610571D01*
X15745714Y-14639143D01*
X15731428Y-14653429D01*
X15702857Y-14667714D01*
X15660000Y-14667714D01*
X15931428Y-14667714D02*
X15902857Y-14653429D01*
X15888571Y-14624857D01*
X15888571Y-14367714D01*
X16160000Y-14653429D02*
X16131428Y-14667714D01*
X16074286Y-14667714D01*
X16045714Y-14653429D01*
X16031428Y-14624857D01*
X16031428Y-14510571D01*
X16045714Y-14482000D01*
X16074286Y-14467714D01*
X16131428Y-14467714D01*
X16160000Y-14482000D01*
X16174286Y-14510571D01*
X16174286Y-14539143D01*
X16031428Y-14567714D01*
X16288571Y-14653429D02*
X16317143Y-14667714D01*
X16374286Y-14667714D01*
X16402857Y-14653429D01*
X16417143Y-14624857D01*
X16417143Y-14610571D01*
X16402857Y-14582000D01*
X16374286Y-14567714D01*
X16331428Y-14567714D01*
X16302857Y-14553429D01*
X16288571Y-14524857D01*
X16288571Y-14510571D01*
X16302857Y-14482000D01*
X16331428Y-14467714D01*
X16374286Y-14467714D01*
X16402857Y-14482000D01*
X16517143Y-14782000D02*
X16531428Y-14767714D01*
X16560000Y-14724857D01*
X16574286Y-14696286D01*
X16588571Y-14653429D01*
X16602857Y-14582000D01*
X16602857Y-14524857D01*
X16588571Y-14453429D01*
X16574286Y-14410571D01*
X16560000Y-14382000D01*
X16531428Y-14339143D01*
X16517143Y-14324857D01*
X9728891Y-14966891D02*
X9728891Y-14889109D01*
X9651109Y-14889109D01*
X9651109Y-14966891D01*
X9728891Y-14966891D01*
X10188571Y-15063714D02*
X10017143Y-15063714D01*
X10102857Y-15063714D02*
X10102857Y-14763714D01*
X10074286Y-14806571D01*
X10045714Y-14835143D01*
X10017143Y-14849429D01*
X10317143Y-15035143D02*
X10331428Y-15049429D01*
X10317143Y-15063714D01*
X10302857Y-15049429D01*
X10317143Y-15035143D01*
X10317143Y-15063714D01*
X10617143Y-15063714D02*
X10445714Y-15063714D01*
X10531428Y-15063714D02*
X10531428Y-14763714D01*
X10502857Y-14806571D01*
X10474286Y-14835143D01*
X10445714Y-14849429D01*
X10802857Y-14763714D02*
X10831428Y-14763714D01*
X10860000Y-14778000D01*
X10874286Y-14792286D01*
X10888571Y-14820857D01*
X10902857Y-14878000D01*
X10902857Y-14949429D01*
X10888571Y-15006571D01*
X10874286Y-15035143D01*
X10860000Y-15049429D01*
X10831428Y-15063714D01*
X10802857Y-15063714D01*
X10774286Y-15049429D01*
X10760000Y-15035143D01*
X10745714Y-15006571D01*
X10731428Y-14949429D01*
X10731428Y-14878000D01*
X10745714Y-14820857D01*
X10760000Y-14792286D01*
X10774286Y-14778000D01*
X10802857Y-14763714D01*
X11031428Y-15063714D02*
X11031428Y-14863714D01*
X11031428Y-14892286D02*
X11045714Y-14878000D01*
X11074286Y-14863714D01*
X11117143Y-14863714D01*
X11145714Y-14878000D01*
X11160000Y-14906571D01*
X11160000Y-15063714D01*
X11160000Y-14906571D02*
X11174286Y-14878000D01*
X11202857Y-14863714D01*
X11245714Y-14863714D01*
X11274286Y-14878000D01*
X11288571Y-14906571D01*
X11288571Y-15063714D01*
X11431428Y-15063714D02*
X11431428Y-14863714D01*
X11431428Y-14892286D02*
X11445714Y-14878000D01*
X11474286Y-14863714D01*
X11517143Y-14863714D01*
X11545714Y-14878000D01*
X11560000Y-14906571D01*
X11560000Y-15063714D01*
X11560000Y-14906571D02*
X11574286Y-14878000D01*
X11602857Y-14863714D01*
X11645714Y-14863714D01*
X11674286Y-14878000D01*
X11688571Y-14906571D01*
X11688571Y-15063714D01*
X12274286Y-14749429D02*
X12017143Y-15135143D01*
X12660000Y-14763714D02*
X12688571Y-14763714D01*
X12717143Y-14778000D01*
X12731428Y-14792286D01*
X12745714Y-14820857D01*
X12760000Y-14878000D01*
X12760000Y-14949429D01*
X12745714Y-15006571D01*
X12731428Y-15035143D01*
X12717143Y-15049429D01*
X12688571Y-15063714D01*
X12660000Y-15063714D01*
X12631428Y-15049429D01*
X12617143Y-15035143D01*
X12602857Y-15006571D01*
X12588571Y-14949429D01*
X12588571Y-14878000D01*
X12602857Y-14820857D01*
X12617143Y-14792286D01*
X12631428Y-14778000D01*
X12660000Y-14763714D01*
X12888571Y-15035143D02*
X12902857Y-15049429D01*
X12888571Y-15063714D01*
X12874286Y-15049429D01*
X12888571Y-15035143D01*
X12888571Y-15063714D01*
X13088571Y-14763714D02*
X13117143Y-14763714D01*
X13145714Y-14778000D01*
X13160000Y-14792286D01*
X13174286Y-14820857D01*
X13188571Y-14878000D01*
X13188571Y-14949429D01*
X13174286Y-15006571D01*
X13160000Y-15035143D01*
X13145714Y-15049429D01*
X13117143Y-15063714D01*
X13088571Y-15063714D01*
X13060000Y-15049429D01*
X13045714Y-15035143D01*
X13031428Y-15006571D01*
X13017143Y-14949429D01*
X13017143Y-14878000D01*
X13031428Y-14820857D01*
X13045714Y-14792286D01*
X13060000Y-14778000D01*
X13088571Y-14763714D01*
X13445714Y-14863714D02*
X13445714Y-15063714D01*
X13374286Y-14749429D02*
X13302857Y-14963714D01*
X13488571Y-14963714D01*
X13574286Y-14763714D02*
X13760000Y-14763714D01*
X13660000Y-14878000D01*
X13702857Y-14878000D01*
X13731428Y-14892286D01*
X13745714Y-14906571D01*
X13760000Y-14935143D01*
X13760000Y-15006571D01*
X13745714Y-15035143D01*
X13731428Y-15049429D01*
X13702857Y-15063714D01*
X13617143Y-15063714D01*
X13588571Y-15049429D01*
X13574286Y-15035143D01*
X13874286Y-14763714D02*
X13874286Y-14820857D01*
X13988571Y-14763714D02*
X13988571Y-14820857D01*
X14431428Y-15178000D02*
X14417143Y-15163714D01*
X14388571Y-15120857D01*
X14374286Y-15092286D01*
X14360000Y-15049429D01*
X14345714Y-14978000D01*
X14345714Y-14920857D01*
X14360000Y-14849429D01*
X14374286Y-14806571D01*
X14388571Y-14778000D01*
X14417143Y-14735143D01*
X14431428Y-14720857D01*
X14688571Y-14763714D02*
X14545714Y-14763714D01*
X14531428Y-14906571D01*
X14545714Y-14892286D01*
X14574286Y-14878000D01*
X14645714Y-14878000D01*
X14674286Y-14892286D01*
X14688571Y-14906571D01*
X14702857Y-14935143D01*
X14702857Y-15006571D01*
X14688571Y-15035143D01*
X14674286Y-15049429D01*
X14645714Y-15063714D01*
X14574286Y-15063714D01*
X14545714Y-15049429D01*
X14531428Y-15035143D01*
X15060000Y-15063714D02*
X15060000Y-14763714D01*
X15188571Y-15063714D02*
X15188571Y-14906571D01*
X15174286Y-14878000D01*
X15145714Y-14863714D01*
X15102857Y-14863714D01*
X15074286Y-14878000D01*
X15060000Y-14892286D01*
X15374286Y-15063714D02*
X15345714Y-15049429D01*
X15331428Y-15035143D01*
X15317143Y-15006571D01*
X15317143Y-14920857D01*
X15331428Y-14892286D01*
X15345714Y-14878000D01*
X15374286Y-14863714D01*
X15417143Y-14863714D01*
X15445714Y-14878000D01*
X15460000Y-14892286D01*
X15474286Y-14920857D01*
X15474286Y-15006571D01*
X15460000Y-15035143D01*
X15445714Y-15049429D01*
X15417143Y-15063714D01*
X15374286Y-15063714D01*
X15645714Y-15063714D02*
X15617143Y-15049429D01*
X15602857Y-15020857D01*
X15602857Y-14763714D01*
X15874286Y-15049429D02*
X15845714Y-15063714D01*
X15788571Y-15063714D01*
X15760000Y-15049429D01*
X15745714Y-15020857D01*
X15745714Y-14906571D01*
X15760000Y-14878000D01*
X15788571Y-14863714D01*
X15845714Y-14863714D01*
X15874286Y-14878000D01*
X15888571Y-14906571D01*
X15888571Y-14935143D01*
X15745714Y-14963714D01*
X16002857Y-15049429D02*
X16031428Y-15063714D01*
X16088571Y-15063714D01*
X16117143Y-15049429D01*
X16131428Y-15020857D01*
X16131428Y-15006571D01*
X16117143Y-14978000D01*
X16088571Y-14963714D01*
X16045714Y-14963714D01*
X16017143Y-14949429D01*
X16002857Y-14920857D01*
X16002857Y-14906571D01*
X16017143Y-14878000D01*
X16045714Y-14863714D01*
X16088571Y-14863714D01*
X16117143Y-14878000D01*
X16231428Y-15178000D02*
X16245714Y-15163714D01*
X16274286Y-15120857D01*
X16288571Y-15092286D01*
X16302857Y-15049429D01*
X16317143Y-14978000D01*
X16317143Y-14920857D01*
X16302857Y-14849429D01*
X16288571Y-14806571D01*
X16274286Y-14778000D01*
X16245714Y-14735143D01*
X16231428Y-14720857D01*
X9685000Y-15384000D02*
X9745000Y-15324000D01*
X9685000Y-15264000D01*
X9625000Y-15324000D01*
X9685000Y-15384000D01*
X10188571Y-15459714D02*
X10017143Y-15459714D01*
X10102857Y-15459714D02*
X10102857Y-15159714D01*
X10074286Y-15202571D01*
X10045714Y-15231143D01*
X10017143Y-15245429D01*
X10317143Y-15431143D02*
X10331428Y-15445429D01*
X10317143Y-15459714D01*
X10302857Y-15445429D01*
X10317143Y-15431143D01*
X10317143Y-15459714D01*
X10445714Y-15188286D02*
X10460000Y-15174000D01*
X10488571Y-15159714D01*
X10560000Y-15159714D01*
X10588571Y-15174000D01*
X10602857Y-15188286D01*
X10617143Y-15216857D01*
X10617143Y-15245429D01*
X10602857Y-15288286D01*
X10431428Y-15459714D01*
X10617143Y-15459714D01*
X10802857Y-15159714D02*
X10831428Y-15159714D01*
X10860000Y-15174000D01*
X10874286Y-15188286D01*
X10888571Y-15216857D01*
X10902857Y-15274000D01*
X10902857Y-15345429D01*
X10888571Y-15402571D01*
X10874286Y-15431143D01*
X10860000Y-15445429D01*
X10831428Y-15459714D01*
X10802857Y-15459714D01*
X10774286Y-15445429D01*
X10760000Y-15431143D01*
X10745714Y-15402571D01*
X10731428Y-15345429D01*
X10731428Y-15274000D01*
X10745714Y-15216857D01*
X10760000Y-15188286D01*
X10774286Y-15174000D01*
X10802857Y-15159714D01*
X11031428Y-15459714D02*
X11031428Y-15259714D01*
X11031428Y-15288286D02*
X11045714Y-15274000D01*
X11074286Y-15259714D01*
X11117143Y-15259714D01*
X11145714Y-15274000D01*
X11160000Y-15302571D01*
X11160000Y-15459714D01*
X11160000Y-15302571D02*
X11174286Y-15274000D01*
X11202857Y-15259714D01*
X11245714Y-15259714D01*
X11274286Y-15274000D01*
X11288571Y-15302571D01*
X11288571Y-15459714D01*
X11431428Y-15459714D02*
X11431428Y-15259714D01*
X11431428Y-15288286D02*
X11445714Y-15274000D01*
X11474286Y-15259714D01*
X11517143Y-15259714D01*
X11545714Y-15274000D01*
X11560000Y-15302571D01*
X11560000Y-15459714D01*
X11560000Y-15302571D02*
X11574286Y-15274000D01*
X11602857Y-15259714D01*
X11645714Y-15259714D01*
X11674286Y-15274000D01*
X11688571Y-15302571D01*
X11688571Y-15459714D01*
X12274286Y-15145429D02*
X12017143Y-15531143D01*
X12660000Y-15159714D02*
X12688571Y-15159714D01*
X12717143Y-15174000D01*
X12731428Y-15188286D01*
X12745714Y-15216857D01*
X12760000Y-15274000D01*
X12760000Y-15345429D01*
X12745714Y-15402571D01*
X12731428Y-15431143D01*
X12717143Y-15445429D01*
X12688571Y-15459714D01*
X12660000Y-15459714D01*
X12631428Y-15445429D01*
X12617143Y-15431143D01*
X12602857Y-15402571D01*
X12588571Y-15345429D01*
X12588571Y-15274000D01*
X12602857Y-15216857D01*
X12617143Y-15188286D01*
X12631428Y-15174000D01*
X12660000Y-15159714D01*
X12888571Y-15431143D02*
X12902857Y-15445429D01*
X12888571Y-15459714D01*
X12874286Y-15445429D01*
X12888571Y-15431143D01*
X12888571Y-15459714D01*
X13088571Y-15159714D02*
X13117143Y-15159714D01*
X13145714Y-15174000D01*
X13160000Y-15188286D01*
X13174286Y-15216857D01*
X13188571Y-15274000D01*
X13188571Y-15345429D01*
X13174286Y-15402571D01*
X13160000Y-15431143D01*
X13145714Y-15445429D01*
X13117143Y-15459714D01*
X13088571Y-15459714D01*
X13060000Y-15445429D01*
X13045714Y-15431143D01*
X13031428Y-15402571D01*
X13017143Y-15345429D01*
X13017143Y-15274000D01*
X13031428Y-15216857D01*
X13045714Y-15188286D01*
X13060000Y-15174000D01*
X13088571Y-15159714D01*
X13445714Y-15259714D02*
X13445714Y-15459714D01*
X13374286Y-15145429D02*
X13302857Y-15359714D01*
X13488571Y-15359714D01*
X13574286Y-15159714D02*
X13774286Y-15159714D01*
X13645714Y-15459714D01*
X13874286Y-15159714D02*
X13874286Y-15216857D01*
X13988571Y-15159714D02*
X13988571Y-15216857D01*
X14431428Y-15574000D02*
X14417143Y-15559714D01*
X14388571Y-15516857D01*
X14374286Y-15488286D01*
X14360000Y-15445429D01*
X14345714Y-15374000D01*
X14345714Y-15316857D01*
X14360000Y-15245429D01*
X14374286Y-15202571D01*
X14388571Y-15174000D01*
X14417143Y-15131143D01*
X14431428Y-15116857D01*
X14588571Y-15288286D02*
X14560000Y-15274000D01*
X14545714Y-15259714D01*
X14531428Y-15231143D01*
X14531428Y-15216857D01*
X14545714Y-15188286D01*
X14560000Y-15174000D01*
X14588571Y-15159714D01*
X14645714Y-15159714D01*
X14674286Y-15174000D01*
X14688571Y-15188286D01*
X14702857Y-15216857D01*
X14702857Y-15231143D01*
X14688571Y-15259714D01*
X14674286Y-15274000D01*
X14645714Y-15288286D01*
X14588571Y-15288286D01*
X14560000Y-15302571D01*
X14545714Y-15316857D01*
X14531428Y-15345429D01*
X14531428Y-15402571D01*
X14545714Y-15431143D01*
X14560000Y-15445429D01*
X14588571Y-15459714D01*
X14645714Y-15459714D01*
X14674286Y-15445429D01*
X14688571Y-15431143D01*
X14702857Y-15402571D01*
X14702857Y-15345429D01*
X14688571Y-15316857D01*
X14674286Y-15302571D01*
X14645714Y-15288286D01*
X15060000Y-15459714D02*
X15060000Y-15159714D01*
X15188571Y-15459714D02*
X15188571Y-15302571D01*
X15174286Y-15274000D01*
X15145714Y-15259714D01*
X15102857Y-15259714D01*
X15074286Y-15274000D01*
X15060000Y-15288286D01*
X15374286Y-15459714D02*
X15345714Y-15445429D01*
X15331428Y-15431143D01*
X15317143Y-15402571D01*
X15317143Y-15316857D01*
X15331428Y-15288286D01*
X15345714Y-15274000D01*
X15374286Y-15259714D01*
X15417143Y-15259714D01*
X15445714Y-15274000D01*
X15460000Y-15288286D01*
X15474286Y-15316857D01*
X15474286Y-15402571D01*
X15460000Y-15431143D01*
X15445714Y-15445429D01*
X15417143Y-15459714D01*
X15374286Y-15459714D01*
X15645714Y-15459714D02*
X15617143Y-15445429D01*
X15602857Y-15416857D01*
X15602857Y-15159714D01*
X15874286Y-15445429D02*
X15845714Y-15459714D01*
X15788571Y-15459714D01*
X15760000Y-15445429D01*
X15745714Y-15416857D01*
X15745714Y-15302571D01*
X15760000Y-15274000D01*
X15788571Y-15259714D01*
X15845714Y-15259714D01*
X15874286Y-15274000D01*
X15888571Y-15302571D01*
X15888571Y-15331143D01*
X15745714Y-15359714D01*
X16002857Y-15445429D02*
X16031428Y-15459714D01*
X16088571Y-15459714D01*
X16117143Y-15445429D01*
X16131428Y-15416857D01*
X16131428Y-15402571D01*
X16117143Y-15374000D01*
X16088571Y-15359714D01*
X16045714Y-15359714D01*
X16017143Y-15345429D01*
X16002857Y-15316857D01*
X16002857Y-15302571D01*
X16017143Y-15274000D01*
X16045714Y-15259714D01*
X16088571Y-15259714D01*
X16117143Y-15274000D01*
X16231428Y-15574000D02*
X16245714Y-15559714D01*
X16274286Y-15516857D01*
X16288571Y-15488286D01*
X16302857Y-15445429D01*
X16317143Y-15374000D01*
X16317143Y-15316857D01*
X16302857Y-15245429D01*
X16288571Y-15202571D01*
X16274286Y-15174000D01*
X16245714Y-15131143D01*
X16231428Y-15116857D01*
X9585000Y-15640000D02*
X9745000Y-15800000D01*
X9745000Y-15640000D02*
X9585000Y-15800000D01*
X9745000Y-15720000D02*
G75*
G03X9745000Y-15720000I-80000J0D01*
G01*
X10188571Y-15855714D02*
X10017143Y-15855714D01*
X10102857Y-15855714D02*
X10102857Y-15555714D01*
X10074286Y-15598571D01*
X10045714Y-15627143D01*
X10017143Y-15641429D01*
X10317143Y-15827143D02*
X10331428Y-15841429D01*
X10317143Y-15855714D01*
X10302857Y-15841429D01*
X10317143Y-15827143D01*
X10317143Y-15855714D01*
X10588571Y-15555714D02*
X10531428Y-15555714D01*
X10502857Y-15570000D01*
X10488571Y-15584286D01*
X10460000Y-15627143D01*
X10445714Y-15684286D01*
X10445714Y-15798571D01*
X10460000Y-15827143D01*
X10474286Y-15841429D01*
X10502857Y-15855714D01*
X10560000Y-15855714D01*
X10588571Y-15841429D01*
X10602857Y-15827143D01*
X10617143Y-15798571D01*
X10617143Y-15727143D01*
X10602857Y-15698571D01*
X10588571Y-15684286D01*
X10560000Y-15670000D01*
X10502857Y-15670000D01*
X10474286Y-15684286D01*
X10460000Y-15698571D01*
X10445714Y-15727143D01*
X10802857Y-15555714D02*
X10831428Y-15555714D01*
X10860000Y-15570000D01*
X10874286Y-15584286D01*
X10888571Y-15612857D01*
X10902857Y-15670000D01*
X10902857Y-15741429D01*
X10888571Y-15798571D01*
X10874286Y-15827143D01*
X10860000Y-15841429D01*
X10831428Y-15855714D01*
X10802857Y-15855714D01*
X10774286Y-15841429D01*
X10760000Y-15827143D01*
X10745714Y-15798571D01*
X10731428Y-15741429D01*
X10731428Y-15670000D01*
X10745714Y-15612857D01*
X10760000Y-15584286D01*
X10774286Y-15570000D01*
X10802857Y-15555714D01*
X11031428Y-15855714D02*
X11031428Y-15655714D01*
X11031428Y-15684286D02*
X11045714Y-15670000D01*
X11074286Y-15655714D01*
X11117143Y-15655714D01*
X11145714Y-15670000D01*
X11160000Y-15698571D01*
X11160000Y-15855714D01*
X11160000Y-15698571D02*
X11174286Y-15670000D01*
X11202857Y-15655714D01*
X11245714Y-15655714D01*
X11274286Y-15670000D01*
X11288571Y-15698571D01*
X11288571Y-15855714D01*
X11431428Y-15855714D02*
X11431428Y-15655714D01*
X11431428Y-15684286D02*
X11445714Y-15670000D01*
X11474286Y-15655714D01*
X11517143Y-15655714D01*
X11545714Y-15670000D01*
X11560000Y-15698571D01*
X11560000Y-15855714D01*
X11560000Y-15698571D02*
X11574286Y-15670000D01*
X11602857Y-15655714D01*
X11645714Y-15655714D01*
X11674286Y-15670000D01*
X11688571Y-15698571D01*
X11688571Y-15855714D01*
X12274286Y-15541429D02*
X12017143Y-15927143D01*
X12660000Y-15555714D02*
X12688571Y-15555714D01*
X12717143Y-15570000D01*
X12731428Y-15584286D01*
X12745714Y-15612857D01*
X12760000Y-15670000D01*
X12760000Y-15741429D01*
X12745714Y-15798571D01*
X12731428Y-15827143D01*
X12717143Y-15841429D01*
X12688571Y-15855714D01*
X12660000Y-15855714D01*
X12631428Y-15841429D01*
X12617143Y-15827143D01*
X12602857Y-15798571D01*
X12588571Y-15741429D01*
X12588571Y-15670000D01*
X12602857Y-15612857D01*
X12617143Y-15584286D01*
X12631428Y-15570000D01*
X12660000Y-15555714D01*
X12888571Y-15827143D02*
X12902857Y-15841429D01*
X12888571Y-15855714D01*
X12874286Y-15841429D01*
X12888571Y-15827143D01*
X12888571Y-15855714D01*
X13088571Y-15555714D02*
X13117143Y-15555714D01*
X13145714Y-15570000D01*
X13160000Y-15584286D01*
X13174286Y-15612857D01*
X13188571Y-15670000D01*
X13188571Y-15741429D01*
X13174286Y-15798571D01*
X13160000Y-15827143D01*
X13145714Y-15841429D01*
X13117143Y-15855714D01*
X13088571Y-15855714D01*
X13060000Y-15841429D01*
X13045714Y-15827143D01*
X13031428Y-15798571D01*
X13017143Y-15741429D01*
X13017143Y-15670000D01*
X13031428Y-15612857D01*
X13045714Y-15584286D01*
X13060000Y-15570000D01*
X13088571Y-15555714D01*
X13445714Y-15555714D02*
X13388571Y-15555714D01*
X13360000Y-15570000D01*
X13345714Y-15584286D01*
X13317143Y-15627143D01*
X13302857Y-15684286D01*
X13302857Y-15798571D01*
X13317143Y-15827143D01*
X13331428Y-15841429D01*
X13360000Y-15855714D01*
X13417143Y-15855714D01*
X13445714Y-15841429D01*
X13460000Y-15827143D01*
X13474286Y-15798571D01*
X13474286Y-15727143D01*
X13460000Y-15698571D01*
X13445714Y-15684286D01*
X13417143Y-15670000D01*
X13360000Y-15670000D01*
X13331428Y-15684286D01*
X13317143Y-15698571D01*
X13302857Y-15727143D01*
X13574286Y-15555714D02*
X13760000Y-15555714D01*
X13660000Y-15670000D01*
X13702857Y-15670000D01*
X13731428Y-15684286D01*
X13745714Y-15698571D01*
X13760000Y-15727143D01*
X13760000Y-15798571D01*
X13745714Y-15827143D01*
X13731428Y-15841429D01*
X13702857Y-15855714D01*
X13617143Y-15855714D01*
X13588571Y-15841429D01*
X13574286Y-15827143D01*
X13874286Y-15555714D02*
X13874286Y-15612857D01*
X13988571Y-15555714D02*
X13988571Y-15612857D01*
X14431428Y-15970000D02*
X14417143Y-15955714D01*
X14388571Y-15912857D01*
X14374286Y-15884286D01*
X14360000Y-15841429D01*
X14345714Y-15770000D01*
X14345714Y-15712857D01*
X14360000Y-15641429D01*
X14374286Y-15598571D01*
X14388571Y-15570000D01*
X14417143Y-15527143D01*
X14431428Y-15512857D01*
X14674286Y-15555714D02*
X14617143Y-15555714D01*
X14588571Y-15570000D01*
X14574286Y-15584286D01*
X14545714Y-15627143D01*
X14531428Y-15684286D01*
X14531428Y-15798571D01*
X14545714Y-15827143D01*
X14560000Y-15841429D01*
X14588571Y-15855714D01*
X14645714Y-15855714D01*
X14674286Y-15841429D01*
X14688571Y-15827143D01*
X14702857Y-15798571D01*
X14702857Y-15727143D01*
X14688571Y-15698571D01*
X14674286Y-15684286D01*
X14645714Y-15670000D01*
X14588571Y-15670000D01*
X14560000Y-15684286D01*
X14545714Y-15698571D01*
X14531428Y-15727143D01*
X15060000Y-15855714D02*
X15060000Y-15555714D01*
X15188571Y-15855714D02*
X15188571Y-15698571D01*
X15174286Y-15670000D01*
X15145714Y-15655714D01*
X15102857Y-15655714D01*
X15074286Y-15670000D01*
X15060000Y-15684286D01*
X15374286Y-15855714D02*
X15345714Y-15841429D01*
X15331428Y-15827143D01*
X15317143Y-15798571D01*
X15317143Y-15712857D01*
X15331428Y-15684286D01*
X15345714Y-15670000D01*
X15374286Y-15655714D01*
X15417143Y-15655714D01*
X15445714Y-15670000D01*
X15460000Y-15684286D01*
X15474286Y-15712857D01*
X15474286Y-15798571D01*
X15460000Y-15827143D01*
X15445714Y-15841429D01*
X15417143Y-15855714D01*
X15374286Y-15855714D01*
X15645714Y-15855714D02*
X15617143Y-15841429D01*
X15602857Y-15812857D01*
X15602857Y-15555714D01*
X15874286Y-15841429D02*
X15845714Y-15855714D01*
X15788571Y-15855714D01*
X15760000Y-15841429D01*
X15745714Y-15812857D01*
X15745714Y-15698571D01*
X15760000Y-15670000D01*
X15788571Y-15655714D01*
X15845714Y-15655714D01*
X15874286Y-15670000D01*
X15888571Y-15698571D01*
X15888571Y-15727143D01*
X15745714Y-15755714D01*
X16002857Y-15841429D02*
X16031428Y-15855714D01*
X16088571Y-15855714D01*
X16117143Y-15841429D01*
X16131428Y-15812857D01*
X16131428Y-15798571D01*
X16117143Y-15770000D01*
X16088571Y-15755714D01*
X16045714Y-15755714D01*
X16017143Y-15741429D01*
X16002857Y-15712857D01*
X16002857Y-15698571D01*
X16017143Y-15670000D01*
X16045714Y-15655714D01*
X16088571Y-15655714D01*
X16117143Y-15670000D01*
X16231428Y-15970000D02*
X16245714Y-15955714D01*
X16274286Y-15912857D01*
X16288571Y-15884286D01*
X16302857Y-15841429D01*
X16317143Y-15770000D01*
X16317143Y-15712857D01*
X16302857Y-15641429D01*
X16288571Y-15598571D01*
X16274286Y-15570000D01*
X16245714Y-15527143D01*
X16231428Y-15512857D01*
X9545000Y-16016000D02*
X9745000Y-16216000D01*
X9745000Y-16016000D02*
X9545000Y-16216000D01*
X9645000Y-16016000D02*
X9645000Y-16216000D01*
X9545000Y-16116000D02*
X9745000Y-16116000D01*
X10017143Y-15980286D02*
X10031428Y-15966000D01*
X10060000Y-15951714D01*
X10131428Y-15951714D01*
X10160000Y-15966000D01*
X10174286Y-15980286D01*
X10188571Y-16008857D01*
X10188571Y-16037429D01*
X10174286Y-16080286D01*
X10002857Y-16251714D01*
X10188571Y-16251714D01*
X10317143Y-16223143D02*
X10331428Y-16237429D01*
X10317143Y-16251714D01*
X10302857Y-16237429D01*
X10317143Y-16223143D01*
X10317143Y-16251714D01*
X10517143Y-15951714D02*
X10545714Y-15951714D01*
X10574286Y-15966000D01*
X10588571Y-15980286D01*
X10602857Y-16008857D01*
X10617143Y-16066000D01*
X10617143Y-16137429D01*
X10602857Y-16194571D01*
X10588571Y-16223143D01*
X10574286Y-16237429D01*
X10545714Y-16251714D01*
X10517143Y-16251714D01*
X10488571Y-16237429D01*
X10474286Y-16223143D01*
X10460000Y-16194571D01*
X10445714Y-16137429D01*
X10445714Y-16066000D01*
X10460000Y-16008857D01*
X10474286Y-15980286D01*
X10488571Y-15966000D01*
X10517143Y-15951714D01*
X10802857Y-15951714D02*
X10831428Y-15951714D01*
X10860000Y-15966000D01*
X10874286Y-15980286D01*
X10888571Y-16008857D01*
X10902857Y-16066000D01*
X10902857Y-16137429D01*
X10888571Y-16194571D01*
X10874286Y-16223143D01*
X10860000Y-16237429D01*
X10831428Y-16251714D01*
X10802857Y-16251714D01*
X10774286Y-16237429D01*
X10760000Y-16223143D01*
X10745714Y-16194571D01*
X10731428Y-16137429D01*
X10731428Y-16066000D01*
X10745714Y-16008857D01*
X10760000Y-15980286D01*
X10774286Y-15966000D01*
X10802857Y-15951714D01*
X11031428Y-16251714D02*
X11031428Y-16051714D01*
X11031428Y-16080286D02*
X11045714Y-16066000D01*
X11074286Y-16051714D01*
X11117143Y-16051714D01*
X11145714Y-16066000D01*
X11160000Y-16094571D01*
X11160000Y-16251714D01*
X11160000Y-16094571D02*
X11174286Y-16066000D01*
X11202857Y-16051714D01*
X11245714Y-16051714D01*
X11274286Y-16066000D01*
X11288571Y-16094571D01*
X11288571Y-16251714D01*
X11431428Y-16251714D02*
X11431428Y-16051714D01*
X11431428Y-16080286D02*
X11445714Y-16066000D01*
X11474286Y-16051714D01*
X11517143Y-16051714D01*
X11545714Y-16066000D01*
X11560000Y-16094571D01*
X11560000Y-16251714D01*
X11560000Y-16094571D02*
X11574286Y-16066000D01*
X11602857Y-16051714D01*
X11645714Y-16051714D01*
X11674286Y-16066000D01*
X11688571Y-16094571D01*
X11688571Y-16251714D01*
X12274286Y-15937429D02*
X12017143Y-16323143D01*
X12660000Y-15951714D02*
X12688571Y-15951714D01*
X12717143Y-15966000D01*
X12731428Y-15980286D01*
X12745714Y-16008857D01*
X12760000Y-16066000D01*
X12760000Y-16137429D01*
X12745714Y-16194571D01*
X12731428Y-16223143D01*
X12717143Y-16237429D01*
X12688571Y-16251714D01*
X12660000Y-16251714D01*
X12631428Y-16237429D01*
X12617143Y-16223143D01*
X12602857Y-16194571D01*
X12588571Y-16137429D01*
X12588571Y-16066000D01*
X12602857Y-16008857D01*
X12617143Y-15980286D01*
X12631428Y-15966000D01*
X12660000Y-15951714D01*
X12888571Y-16223143D02*
X12902857Y-16237429D01*
X12888571Y-16251714D01*
X12874286Y-16237429D01*
X12888571Y-16223143D01*
X12888571Y-16251714D01*
X13088571Y-15951714D02*
X13117143Y-15951714D01*
X13145714Y-15966000D01*
X13160000Y-15980286D01*
X13174286Y-16008857D01*
X13188571Y-16066000D01*
X13188571Y-16137429D01*
X13174286Y-16194571D01*
X13160000Y-16223143D01*
X13145714Y-16237429D01*
X13117143Y-16251714D01*
X13088571Y-16251714D01*
X13060000Y-16237429D01*
X13045714Y-16223143D01*
X13031428Y-16194571D01*
X13017143Y-16137429D01*
X13017143Y-16066000D01*
X13031428Y-16008857D01*
X13045714Y-15980286D01*
X13060000Y-15966000D01*
X13088571Y-15951714D01*
X13288571Y-15951714D02*
X13488571Y-15951714D01*
X13360000Y-16251714D01*
X13617143Y-16251714D02*
X13674286Y-16251714D01*
X13702857Y-16237429D01*
X13717143Y-16223143D01*
X13745714Y-16180286D01*
X13760000Y-16123143D01*
X13760000Y-16008857D01*
X13745714Y-15980286D01*
X13731428Y-15966000D01*
X13702857Y-15951714D01*
X13645714Y-15951714D01*
X13617143Y-15966000D01*
X13602857Y-15980286D01*
X13588571Y-16008857D01*
X13588571Y-16080286D01*
X13602857Y-16108857D01*
X13617143Y-16123143D01*
X13645714Y-16137429D01*
X13702857Y-16137429D01*
X13731428Y-16123143D01*
X13745714Y-16108857D01*
X13760000Y-16080286D01*
X13874286Y-15951714D02*
X13874286Y-16008857D01*
X13988571Y-15951714D02*
X13988571Y-16008857D01*
X14431428Y-16366000D02*
X14417143Y-16351714D01*
X14388571Y-16308857D01*
X14374286Y-16280286D01*
X14360000Y-16237429D01*
X14345714Y-16166000D01*
X14345714Y-16108857D01*
X14360000Y-16037429D01*
X14374286Y-15994571D01*
X14388571Y-15966000D01*
X14417143Y-15923143D01*
X14431428Y-15908857D01*
X14674286Y-15951714D02*
X14617143Y-15951714D01*
X14588571Y-15966000D01*
X14574286Y-15980286D01*
X14545714Y-16023143D01*
X14531428Y-16080286D01*
X14531428Y-16194571D01*
X14545714Y-16223143D01*
X14560000Y-16237429D01*
X14588571Y-16251714D01*
X14645714Y-16251714D01*
X14674286Y-16237429D01*
X14688571Y-16223143D01*
X14702857Y-16194571D01*
X14702857Y-16123143D01*
X14688571Y-16094571D01*
X14674286Y-16080286D01*
X14645714Y-16066000D01*
X14588571Y-16066000D01*
X14560000Y-16080286D01*
X14545714Y-16094571D01*
X14531428Y-16123143D01*
X15060000Y-16251714D02*
X15060000Y-15951714D01*
X15188571Y-16251714D02*
X15188571Y-16094571D01*
X15174286Y-16066000D01*
X15145714Y-16051714D01*
X15102857Y-16051714D01*
X15074286Y-16066000D01*
X15060000Y-16080286D01*
X15374286Y-16251714D02*
X15345714Y-16237429D01*
X15331428Y-16223143D01*
X15317143Y-16194571D01*
X15317143Y-16108857D01*
X15331428Y-16080286D01*
X15345714Y-16066000D01*
X15374286Y-16051714D01*
X15417143Y-16051714D01*
X15445714Y-16066000D01*
X15460000Y-16080286D01*
X15474286Y-16108857D01*
X15474286Y-16194571D01*
X15460000Y-16223143D01*
X15445714Y-16237429D01*
X15417143Y-16251714D01*
X15374286Y-16251714D01*
X15645714Y-16251714D02*
X15617143Y-16237429D01*
X15602857Y-16208857D01*
X15602857Y-15951714D01*
X15874286Y-16237429D02*
X15845714Y-16251714D01*
X15788571Y-16251714D01*
X15760000Y-16237429D01*
X15745714Y-16208857D01*
X15745714Y-16094571D01*
X15760000Y-16066000D01*
X15788571Y-16051714D01*
X15845714Y-16051714D01*
X15874286Y-16066000D01*
X15888571Y-16094571D01*
X15888571Y-16123143D01*
X15745714Y-16151714D01*
X16002857Y-16237429D02*
X16031428Y-16251714D01*
X16088571Y-16251714D01*
X16117143Y-16237429D01*
X16131428Y-16208857D01*
X16131428Y-16194571D01*
X16117143Y-16166000D01*
X16088571Y-16151714D01*
X16045714Y-16151714D01*
X16017143Y-16137429D01*
X16002857Y-16108857D01*
X16002857Y-16094571D01*
X16017143Y-16066000D01*
X16045714Y-16051714D01*
X16088571Y-16051714D01*
X16117143Y-16066000D01*
X16231428Y-16366000D02*
X16245714Y-16351714D01*
X16274286Y-16308857D01*
X16288571Y-16280286D01*
X16302857Y-16237429D01*
X16317143Y-16166000D01*
X16317143Y-16108857D01*
X16302857Y-16037429D01*
X16288571Y-15994571D01*
X16274286Y-15966000D01*
X16245714Y-15923143D01*
X16231428Y-15908857D01*
M02*
