G04 #@! TF.GenerationSoftware,KiCad,Pcbnew,(5.1.5-0-10_14)*
G04 #@! TF.CreationDate,2020-04-23T09:13:14+01:00*
G04 #@! TF.ProjectId,healthkeeper,6865616c-7468-46b6-9565-7065722e6b69,rev?*
G04 #@! TF.SameCoordinates,Original*
G04 #@! TF.FileFunction,Soldermask,Bot*
G04 #@! TF.FilePolarity,Negative*
%FSLAX46Y46*%
G04 Gerber Fmt 4.6, Leading zero omitted, Abs format (unit mm)*
G04 Created by KiCad (PCBNEW (5.1.5-0-10_14)) date 2020-04-23 09:13:14*
%MOMM*%
%LPD*%
G04 APERTURE LIST*
%ADD10O,1.700000X1.700000*%
%ADD11R,1.700000X1.700000*%
%ADD12C,6.000000*%
%ADD13O,1.600000X1.600000*%
%ADD14R,1.600000X1.600000*%
%ADD15C,3.000000*%
%ADD16C,1.300000*%
%ADD17C,1.800000*%
%ADD18C,1.600000*%
%ADD19O,2.400000X2.400000*%
%ADD20C,2.400000*%
%ADD21O,1.905000X2.000000*%
%ADD22R,1.905000X2.000000*%
%ADD23O,2.000000X2.600000*%
%ADD24C,0.100000*%
%ADD25O,2.600000X2.000000*%
%ADD26O,2.200000X2.200000*%
%ADD27R,2.200000X2.200000*%
%ADD28C,2.000000*%
%ADD29R,2.000000X2.000000*%
G04 APERTURE END LIST*
D10*
X117365859Y-74202587D03*
X114825859Y-76742587D03*
X130065859Y-76742587D03*
X130065859Y-74202587D03*
X114825859Y-74202587D03*
X117365859Y-76742587D03*
X112285859Y-74202587D03*
D11*
X112285859Y-76742587D03*
D10*
X140225859Y-76742587D03*
X140225859Y-74202587D03*
X124985859Y-76742587D03*
X124985859Y-74202587D03*
X145305859Y-76742587D03*
X145305859Y-74202587D03*
X127525859Y-76742587D03*
X127525859Y-74202587D03*
X122445859Y-76742587D03*
X122445859Y-74202587D03*
X135145859Y-76742587D03*
X135145859Y-74202587D03*
X158005859Y-76742587D03*
X158005859Y-74202587D03*
X152925859Y-76742587D03*
X152925859Y-74202587D03*
X155465859Y-76742587D03*
X155465859Y-74202587D03*
X132605859Y-76742587D03*
X132605859Y-74202587D03*
X150385859Y-76742587D03*
X150385859Y-74202587D03*
X119905859Y-76742587D03*
X119905859Y-74202587D03*
X147845859Y-76742587D03*
X147845859Y-74202587D03*
X137685859Y-76742587D03*
X137685859Y-74202587D03*
X142765859Y-76742587D03*
X142765859Y-74202587D03*
X160545859Y-76742587D03*
X160545859Y-74202587D03*
D12*
X107332859Y-124494587D03*
X165371859Y-124494587D03*
X107396359Y-75472587D03*
X165415859Y-75472587D03*
D10*
X136920000Y-58500000D03*
X139460000Y-58500000D03*
X142000000Y-58500000D03*
D11*
X144540000Y-58500000D03*
D10*
X100880000Y-58500000D03*
X103420000Y-58500000D03*
X105960000Y-58500000D03*
D11*
X108500000Y-58500000D03*
D10*
X136880000Y-63500000D03*
X139420000Y-63500000D03*
X141960000Y-63500000D03*
D11*
X144500000Y-63500000D03*
D13*
X162660000Y-99250000D03*
X152500000Y-117030000D03*
X162660000Y-101790000D03*
X152500000Y-114490000D03*
X162660000Y-104330000D03*
X152500000Y-111950000D03*
X162660000Y-106870000D03*
X152500000Y-109410000D03*
X162660000Y-109410000D03*
X152500000Y-106870000D03*
X162660000Y-111950000D03*
X152500000Y-104330000D03*
X162660000Y-114490000D03*
X152500000Y-101790000D03*
X162660000Y-117030000D03*
D14*
X152500000Y-99250000D03*
D15*
X178500000Y-61250000D03*
X154500000Y-61250000D03*
X177600000Y-55300000D03*
X155400000Y-56800000D03*
X177600000Y-67200000D03*
X155400000Y-67200000D03*
D16*
X177800000Y-58250000D03*
X155200000Y-64250000D03*
X169500000Y-64000000D03*
X167500000Y-64000000D03*
X165500000Y-64000000D03*
X163500000Y-64000000D03*
D10*
X120380000Y-58500000D03*
X122920000Y-58500000D03*
X125460000Y-58500000D03*
D11*
X128000000Y-58500000D03*
D17*
X111000000Y-97305500D03*
X131320000Y-97305500D03*
X131320000Y-107465500D03*
X131320000Y-117625500D03*
X111000000Y-104925500D03*
X111000000Y-110005500D03*
D13*
X148094700Y-89039700D03*
X140474700Y-81419700D03*
X145554700Y-89039700D03*
X143014700Y-81419700D03*
X143014700Y-89039700D03*
X145554700Y-81419700D03*
X140474700Y-89039700D03*
D14*
X148094700Y-81419700D03*
D13*
X166500000Y-90370000D03*
X158880000Y-82750000D03*
X163960000Y-90370000D03*
X161420000Y-82750000D03*
X161420000Y-90370000D03*
X163960000Y-82750000D03*
X158880000Y-90370000D03*
D14*
X166500000Y-82750000D03*
D13*
X152590000Y-120250000D03*
D18*
X162750000Y-120250000D03*
D13*
X116660000Y-65500000D03*
D18*
X106500000Y-65500000D03*
D13*
X131160000Y-65500000D03*
D18*
X121000000Y-65500000D03*
D13*
X154250000Y-91160000D03*
D18*
X154250000Y-81000000D03*
D19*
X131594860Y-82500000D03*
D20*
X111274860Y-82500000D03*
D13*
X135160000Y-90500000D03*
D18*
X125000000Y-90500000D03*
D13*
X148660000Y-95250000D03*
D18*
X138500000Y-95250000D03*
D21*
X119580000Y-90500000D03*
X117040000Y-90500000D03*
D22*
X114500000Y-90500000D03*
D10*
X149750000Y-70370000D03*
X149750000Y-67830000D03*
X149750000Y-65290000D03*
D11*
X149750000Y-62750000D03*
D23*
X143750000Y-122250000D03*
D24*
G36*
X148024504Y-120951204D02*
G01*
X148048773Y-120954804D01*
X148072571Y-120960765D01*
X148095671Y-120969030D01*
X148117849Y-120979520D01*
X148138893Y-120992133D01*
X148158598Y-121006747D01*
X148176777Y-121023223D01*
X148193253Y-121041402D01*
X148207867Y-121061107D01*
X148220480Y-121082151D01*
X148230970Y-121104329D01*
X148239235Y-121127429D01*
X148245196Y-121151227D01*
X148248796Y-121175496D01*
X148250000Y-121200000D01*
X148250000Y-123300000D01*
X148248796Y-123324504D01*
X148245196Y-123348773D01*
X148239235Y-123372571D01*
X148230970Y-123395671D01*
X148220480Y-123417849D01*
X148207867Y-123438893D01*
X148193253Y-123458598D01*
X148176777Y-123476777D01*
X148158598Y-123493253D01*
X148138893Y-123507867D01*
X148117849Y-123520480D01*
X148095671Y-123530970D01*
X148072571Y-123539235D01*
X148048773Y-123545196D01*
X148024504Y-123548796D01*
X148000000Y-123550000D01*
X146500000Y-123550000D01*
X146475496Y-123548796D01*
X146451227Y-123545196D01*
X146427429Y-123539235D01*
X146404329Y-123530970D01*
X146382151Y-123520480D01*
X146361107Y-123507867D01*
X146341402Y-123493253D01*
X146323223Y-123476777D01*
X146306747Y-123458598D01*
X146292133Y-123438893D01*
X146279520Y-123417849D01*
X146269030Y-123395671D01*
X146260765Y-123372571D01*
X146254804Y-123348773D01*
X146251204Y-123324504D01*
X146250000Y-123300000D01*
X146250000Y-121200000D01*
X146251204Y-121175496D01*
X146254804Y-121151227D01*
X146260765Y-121127429D01*
X146269030Y-121104329D01*
X146279520Y-121082151D01*
X146292133Y-121061107D01*
X146306747Y-121041402D01*
X146323223Y-121023223D01*
X146341402Y-121006747D01*
X146361107Y-120992133D01*
X146382151Y-120979520D01*
X146404329Y-120969030D01*
X146427429Y-120960765D01*
X146451227Y-120954804D01*
X146475496Y-120951204D01*
X146500000Y-120950000D01*
X148000000Y-120950000D01*
X148024504Y-120951204D01*
G37*
D25*
X103000000Y-91000000D03*
D24*
G36*
X104074504Y-93501204D02*
G01*
X104098773Y-93504804D01*
X104122571Y-93510765D01*
X104145671Y-93519030D01*
X104167849Y-93529520D01*
X104188893Y-93542133D01*
X104208598Y-93556747D01*
X104226777Y-93573223D01*
X104243253Y-93591402D01*
X104257867Y-93611107D01*
X104270480Y-93632151D01*
X104280970Y-93654329D01*
X104289235Y-93677429D01*
X104295196Y-93701227D01*
X104298796Y-93725496D01*
X104300000Y-93750000D01*
X104300000Y-95250000D01*
X104298796Y-95274504D01*
X104295196Y-95298773D01*
X104289235Y-95322571D01*
X104280970Y-95345671D01*
X104270480Y-95367849D01*
X104257867Y-95388893D01*
X104243253Y-95408598D01*
X104226777Y-95426777D01*
X104208598Y-95443253D01*
X104188893Y-95457867D01*
X104167849Y-95470480D01*
X104145671Y-95480970D01*
X104122571Y-95489235D01*
X104098773Y-95495196D01*
X104074504Y-95498796D01*
X104050000Y-95500000D01*
X101950000Y-95500000D01*
X101925496Y-95498796D01*
X101901227Y-95495196D01*
X101877429Y-95489235D01*
X101854329Y-95480970D01*
X101832151Y-95470480D01*
X101811107Y-95457867D01*
X101791402Y-95443253D01*
X101773223Y-95426777D01*
X101756747Y-95408598D01*
X101742133Y-95388893D01*
X101729520Y-95367849D01*
X101719030Y-95345671D01*
X101710765Y-95322571D01*
X101704804Y-95298773D01*
X101701204Y-95274504D01*
X101700000Y-95250000D01*
X101700000Y-93750000D01*
X101701204Y-93725496D01*
X101704804Y-93701227D01*
X101710765Y-93677429D01*
X101719030Y-93654329D01*
X101729520Y-93632151D01*
X101742133Y-93611107D01*
X101756747Y-93591402D01*
X101773223Y-93573223D01*
X101791402Y-93556747D01*
X101811107Y-93542133D01*
X101832151Y-93529520D01*
X101854329Y-93519030D01*
X101877429Y-93510765D01*
X101901227Y-93504804D01*
X101925496Y-93501204D01*
X101950000Y-93500000D01*
X104050000Y-93500000D01*
X104074504Y-93501204D01*
G37*
D25*
X103000000Y-109000000D03*
D24*
G36*
X104074504Y-104501204D02*
G01*
X104098773Y-104504804D01*
X104122571Y-104510765D01*
X104145671Y-104519030D01*
X104167849Y-104529520D01*
X104188893Y-104542133D01*
X104208598Y-104556747D01*
X104226777Y-104573223D01*
X104243253Y-104591402D01*
X104257867Y-104611107D01*
X104270480Y-104632151D01*
X104280970Y-104654329D01*
X104289235Y-104677429D01*
X104295196Y-104701227D01*
X104298796Y-104725496D01*
X104300000Y-104750000D01*
X104300000Y-106250000D01*
X104298796Y-106274504D01*
X104295196Y-106298773D01*
X104289235Y-106322571D01*
X104280970Y-106345671D01*
X104270480Y-106367849D01*
X104257867Y-106388893D01*
X104243253Y-106408598D01*
X104226777Y-106426777D01*
X104208598Y-106443253D01*
X104188893Y-106457867D01*
X104167849Y-106470480D01*
X104145671Y-106480970D01*
X104122571Y-106489235D01*
X104098773Y-106495196D01*
X104074504Y-106498796D01*
X104050000Y-106500000D01*
X101950000Y-106500000D01*
X101925496Y-106498796D01*
X101901227Y-106495196D01*
X101877429Y-106489235D01*
X101854329Y-106480970D01*
X101832151Y-106470480D01*
X101811107Y-106457867D01*
X101791402Y-106443253D01*
X101773223Y-106426777D01*
X101756747Y-106408598D01*
X101742133Y-106388893D01*
X101729520Y-106367849D01*
X101719030Y-106345671D01*
X101710765Y-106322571D01*
X101704804Y-106298773D01*
X101701204Y-106274504D01*
X101700000Y-106250000D01*
X101700000Y-104750000D01*
X101701204Y-104725496D01*
X101704804Y-104701227D01*
X101710765Y-104677429D01*
X101719030Y-104654329D01*
X101729520Y-104632151D01*
X101742133Y-104611107D01*
X101756747Y-104591402D01*
X101773223Y-104573223D01*
X101791402Y-104556747D01*
X101811107Y-104542133D01*
X101832151Y-104529520D01*
X101854329Y-104519030D01*
X101877429Y-104510765D01*
X101901227Y-104504804D01*
X101925496Y-104501204D01*
X101950000Y-104500000D01*
X104050000Y-104500000D01*
X104074504Y-104501204D01*
G37*
D26*
X99750000Y-85750000D03*
D27*
X99750000Y-75590000D03*
D18*
X165250000Y-94750000D03*
X160250000Y-94750000D03*
X166250000Y-103500000D03*
X166250000Y-98500000D03*
X135399780Y-87290920D03*
X135399780Y-82290920D03*
X136250000Y-106250000D03*
X136250000Y-101250000D03*
D28*
X143500000Y-101250000D03*
D29*
X143500000Y-106250000D03*
M02*
